<svg fill="none" height="44" viewBox="0 0 153 44" width="153" xmlns="http://www.w3.org/2000/svg"><path d="m3.61523 36.6934v-26.2539c0-1.15109-.24544-2.14132-.73632-2.97075-.47396-.82943-1.07487-1.24414-1.80274-1.24414v-1.14258c.23698-.03385 2.12435-1.0918 5.66211-3.17383.11849.03386.25391.07618.40625.12696.15235.03385.31315.08463.48242.15234.33854.11849.79558.45703 1.3711 1.01562.57552.5586.86328 1.20183.86328 1.92969.20317-.10156.78707-.43164 1.75197-.99023 2.5729-1.45573 4.164-2.1836 4.7734-2.1836s1.2865.31316 2.0313.93946 1.3034 1.37109 1.6758 2.23437c.0338-.01692.2285-.11849.5839-.30469.3555-.18619.8718-.44856 1.5489-.7871 2.7083-1.38803 4.3418-2.08204 4.9004-2.08204.7447 0 1.4641.34701 2.1582 1.04102.694.69401 1.2695 1.52344 1.7265 2.48828.4571.96484.6856 1.85352.6856 2.66602v26.1523c0 1.9297.8463 3.0554 2.539 3.377v1.1426l-5.6621 3.1738c-.7617-.3047-1.4726-.8125-2.1328-1.5234-.6602-.711-.9902-1.3796-.9902-2.0059v-25.4922c0-2.082-.3386-3.52928-1.0157-4.34178-.677-.8125-1.8958-1.25261-3.6562-1.32031v26.99019c0 1.9297.8464 3.0554 2.5391 3.377v1.1426l-5.6622 3.1738c-.7617-.3047-1.4726-.8125-2.1328-1.5234-.6601-.711-.9902-1.3796-.9902-2.0059v-25.4922c0-2.1836-.3216-3.67316-.9648-4.46873-.6433-.79558-1.8789-1.19336-3.70707-1.19336v26.68559c0 1.2695.13541 2.1835.40627 2.7421.2708.5586.8463.8379 1.7265.8379v1.5996l-10.66402 4.4942-.837892-1.6758c.761722 0 1.489582-.4486 2.183592-1.3457.6263-.8464.93945-2.1667.93945-3.9609zm49.35937-17.4688v14.7266c0 1.2695.2031 2.1582.6094 2.666.4232.5078 1.0664.8633 1.9297 1.0664v1.1426l-5.6621 3.1738c-.7618-.3047-1.4727-.8125-2.1328-1.5234-.6602-.711-.9903-1.3627-.9903-1.9551l-6.5 3.4785c-.0508-.0339-.1185-.0677-.2031-.1016-.0677-.0507-.1524-.11-.2539-.1777-.2201-.1185-.584-.3809-1.0918-.7871-.4909-.4063-.931-.8294-1.3203-1.2695-1.0326-1.1342-1.5489-2.4375-1.5489-3.9102v-8.5312c0-.3724.4232-.821 1.2696-1.3457.8633-.5248 1.9212-1.0495 3.1738-1.5743 1.2526-.5247 2.4714-.9733 3.6563-1.3457l2.7675-.8632c0-1.3204-.22-2.3614-.6601-3.1231-.4401-.7786-1.2103-1.3372-2.3106-1.6758-1.0833-.3385-2.6237-.5078-4.6211-.5078v-1.5742c5.3321-1.8958 8.3451-2.8438 9.0391-2.8438.7786 0 1.5319.3555 2.2598 1.0664.7448.6941 1.3626 1.5658 1.8535 2.6153s.7363 2.1074.7363 3.1738zm-10.918 14.6758c0 .8802.2709 1.6081.8125 2.1836.5417.5755 1.1426.8633 1.8028.8633.6601-.017 1.3457-.2709 2.0566-.7618v-11.7558c-.8633.3047-1.515.567-1.9551.7871-.4231.2031-.8802.5247-1.3711.9648-.8971.8464-1.3457 2.2852-1.3457 4.3164zm15.336-28.03126v-3.17383c0-.05078.2116-.16927.6347-.35547.4401-.18619.948-.38932 1.5235-.60937.5924-.22005 1.1256-.40625 1.5996-.55859.4909-.16928.7956-.253911.9141-.253911.2369 0 .567.296221.9902.888671s.6348 1.20182.6348 1.82813v3.7832c0 .05078-.2116.16927-.6348.35547-.4063.1862-.8887.38932-1.4473.60937s-1.0833.41472-1.5742.58399c-.4909.15234-.8125.22851-.9648.22851-.4063 0-.7872-.347-1.1426-1.04101-.3555-.69401-.5332-1.45573-.5332-2.28516zm7.0332 10.02926v18.4082c0 2.099.7109 3.2924 2.1328 3.5801v1.1426l-5.2559 2.9707c-.7617-.3047-1.4726-.8125-2.1328-1.5234-.6601-.711-.9902-1.3796-.9902-2.0059v-18.4082c0-2.1328-.7109-3.3346-2.1328-3.6055v-1.1425l5.2558-2.9454c.7618.3047 1.4727.8125 2.1328 1.5235.6602.7109.9903 1.3795.9903 2.0058zm4.1387 11.375 3.123-2.9453h13.5586v1.2442l-3.0977 2.8437h-13.5839zm27.0917 1.2188v5.8144c0 2.099.711 3.2924 2.1329 3.5801v1.1426l-5.2559 2.9707c-.7617-.3047-1.4727-.8125-2.1328-1.5234-.6602-.711-.9902-1.3796-.9902-2.0059v-25.7461c0-.931-.1609-1.5911-.4825-1.9805-.3047-.4062-.8379-.6093-1.5996-.6093v-1.47269c2.2513-1.1849 4.3841-2.32747 6.3985-3.42773 2.0143-1.11719 3.9017-2.19206 5.6621-3.22461l.8383 1.67578c-.3559.16927-.8468.50781-1.4731 1.01562-.6094.49089-1.1256.9987-1.5488 1.52344-1.0326 1.30338-1.5489 2.79297-1.5489 4.46879v4.7988c3.2331-2.082 5.1378-3.1231 5.7128-3.1231.643 0 1.354.2963 2.133.8887.779.5755 1.447 1.3288 2.006 2.2598.575.931.863 1.9212.863 2.9707v5.6875c0 .3554-1.803 1.2357-5.408 2.6406 2.183 5.7891 4.308 9.1152 6.373 9.9785.609.3047 1.337.4994 2.184.584v1.4981c-3.217 2.082-5.239 3.123-6.069 3.123-.44 0-.948-.3132-1.523-.9395-.576-.6432-1.177-1.4811-1.803-2.5136-.6263-1.0326-1.2272-2.1498-1.8027-3.3516-.5756-1.2187-1.1003-2.4121-1.5743-3.5801-.457-1.1849-.8209-2.2259-1.0918-3.123zm1.6504-11.0957-1.6504.2793v8.2519c.6941 0 1.9382-.4316 3.7325-1.2949l.9393-.457v-2.3613c0-2.9454-1.007-4.418-3.0214-4.418zm13.3814 17.0117v-17.2656c0-.1016.389-.3216 1.167-.6602.796-.3554 1.786-.7617 2.971-1.2187 1.185-.4571 2.387-.9056 3.606-1.3457 1.235-.4571 2.319-.8295 3.25-1.1172.931-.2878 1.515-.4317 1.752-.4317.304 0 .702.2032 1.193.6094.491.3893.982.8972 1.473 1.5235.507.6263.931 1.2864 1.269 1.9804.356.6771.533 1.2949.533 1.8535v18.8399c0 .1015-.381.3301-1.142.6855-.745.3555-1.684.7702-2.819 1.2442-1.134.457-2.31.9056-3.529 1.3457-1.202.4401-2.285.8125-3.25 1.1172-.948.2877-1.591.4316-1.93.4316-.558 0-1.193-.3385-1.904-1.0156-.711-.694-1.329-1.6166-1.853-2.7676-.525-1.151-.787-2.4206-.787-3.8086zm8.886 2.8184c.677 0 1.354-.2793 2.031-.8379v-15.336c0-2.5729-.88-3.8593-2.64-3.8593-.711 0-1.388.2623-2.031.7871v15.3867c0 2.5729.88 3.8594 2.64 3.8594zm19.754-3.3262c0 .8802.271 1.6081.813 2.1836 1.066 1.1172 2.352 1.151 3.859.1015v-16.1738c0-2.1328-.711-3.3346-2.133-3.6055v-1.1425l5.256-2.9453c.762.3046 1.473.8125 2.133 1.5234s.99 1.3796.99 2.0059v17.6211c0 1.151.246 2.1412.736 2.9707.491.8294 1.101 1.2441 1.829 1.2441v1.1426c-.254.0169-2.15 1.0748-5.688 3.1738-.796-.3385-1.515-.8464-2.158-1.5234-.643-.6771-.965-1.3288-.965-1.9551l-6.5 3.4785c-.051-.0339-.118-.0677-.203-.1016-.068-.0507-.152-.11-.254-.1777-.203-.1185-.559-.3809-1.066-.7871-.508-.4063-.948-.8294-1.321-1.2695-1.049-1.1511-1.574-2.4545-1.574-3.9102v-15.7422c0-1.9297-.846-3.0553-2.539-3.3769v-1.1426l5.662-3.1738c.762.3046 1.473.8125 2.133 1.5234s.99 1.3796.99 2.0059z" fill="#000"/></svg>