<?xml version="1.0" encoding="UTF-8"?>
<svg id="_レイヤー_2" data-name="レイヤー 2" xmlns="http://www.w3.org/2000/svg" viewBox="0 0 469.3 157.92">
  <defs>
    <style>
      .cls-1 {
        fill: #fff;
      }
    </style>
  </defs>
  <g id="_レイヤー_1-2" data-name="レイヤー 1">
    <g>
      <path class="cls-1" d="M211.31,137.51c-3.97-.93-6.14-4.27-6.52-10.04,0,0,0-.01,0-.02h0c-.04-.6-.07-1.23-.07-1.88v-61.65c0-2.11-1.04-4.35-3.12-6.73-2.08-2.38-4.26-4.05-6.66-5.05l-16.66,9.58v1.65c4.48.94,6.72,4.95,6.72,12.08v64.05c0,2.11,1.04,4.35,3.12,6.73,2.08,2.38,5.83,4.05,8.23,5.05l26.8-17.06c-4.52,2.04-8.65,3.49-11.84,3.3Z"/>
      <path class="cls-1" d="M469.3,132.77l-.42-.73c-14.95,9.69-22.2,7.42-21.29-9.28v-58.97c0-2.11-1.04-4.35-3.12-6.73-2.08-2.38-4.31-4.07-6.7-5.07l-16.67,9.58v2.41c4.48.94,6.78,5.23,6.78,12.36v61.3c-4.77,3.51-15.07,3.71-14.74-13.4l.03-.07v-60.41c0-2.11-1.04-4.35-3.12-6.73-2.08-2.38-4.12-4.01-6.52-5.01l-18.06,10.38v2.31c5.33,1.07,8.02,4.9,8.02,11.36v54.29c0,4.89,1.64,9.24,4.95,13.09,1.17,1.47,2.56,2.88,4.17,4.25,1.61,1.37,5.02,3.48,5.18,3.58l20.13-11.57c0,2.11,1.01,4.2,3.03,6.48.9.99,1.99,1.86,3.14,2.64,1.48,1.05,3.05,1.87,4.43,2.45l30.81-18.5Z"/>
      <path class="cls-1" d="M336.51,134.03c-.22-.87-1.19-1.3-2-.9-7.41,3.7-11.75,8.01-18.47.39-1.9-2.98-13.13-21.45-20.01-40.92,11.39-4.71,22.76-10.3,16.12-30.31-1.8-5.43-7.78-10.2-11.51-9.47-1.77.34-8.24,4.36-19.57,10.63V30.56c0-6.91-.93-17.55,2.32-21.92,1.33-1.75,8.57-6.65,9.71-7.22l-.82-1.42s-33.24,19.35-40.34,23.32l.9,1.87s6.33-1.79,7.86,8.04c1.01,1.31.65,106.21.65,106.21,0,2.12,1.04,4.37,3.12,6.76,2.08,2.39,4.36,4.07,6.76,5.08l24.64-14.23c2.7,5.93,4.82,10.44,5.31,11.15.62.89,4.42,4.05,8,2.8l26.67-15.4c.54-.31.81-.95.66-1.56ZM281.31,65.7l5.13-2.78c2.35-1.27,5.29-.33,6.45,2.07l10.86,22.35-22.67,9.93.23-31.56ZM282.93,134.03c-1.23-2.03-1.86-4.88-1.86-8.58l-.24-22.95c.54,1.88,8.28,19.6,14.08,32.43-5.01,1.44-9.57,1.74-11.99-.9Z"/>
      <path class="cls-1" d="M115.54,135.77c-7.31,2.95-14.26-2.68-14.11-10.26V37.57c-.19-14.4-7.6-23.21-14.83-22.08-3.29.52-17.08,9-20.64,11.21-.45.28-1.02.09-1.25-.38-1.24-2.48-3.14-4.55-5.22-6.44-2.34-2.12-4.52-2.79-6.41-3.16-2.36-.47-15.19,7.34-19.38,9.78-.55.32-1.22-.03-1.31-.66-.27-1.85-1.11-3.42-2.6-4.95-1.68-1.93-6.9-4.32-8.39-4.98-.25-.11-.54-.09-.78.05L0,28.06l.77,2.42s6.41-1.37,8.29.09c2.5,1.96,3.9,5.35,3.76,14.57,0,.02,0,.04,0,.05v88.25c.17,12.43-2.37,16.67-4.63,17.43-.43.15-.68.59-.57,1.03l1.31,5.35c.14.57.78.84,1.29.55l11.29-6.52h0l25.78-14.88v3.03c0,2.12,1.04,4.37,3.12,6.76,1.96,2.25,4.06,3.9,6.3,4.93.02,0,.04,0,.05,0,.24.12.49.24.74.34l24.25-14v2.03c0,2.12,1.04,4.37,3.12,6.76,1.96,2.25,4.26,3.99,6.53,5.03.26.12.55.1.8-.05l24.1-13.91c.29-.17.46-.48.43-.81-.04-.59-.64-.97-1.19-.75ZM38.75,138.12c-.09-.04-.19-.07-.3-.08-2.42-.16-4.4-1.07-5.17-2.76-.85-1.88-.73-6.57-.73-10.84V29.25c0-.3.16-.59.42-.75,7.57-4.71,8.95-5.92,11.22-3.71.05.05.1.1.14.16,1.99,2.96,2.96,21.5,2.96,28.76v81.99c-3.07,1.26-6.07,2.21-8.53,2.42ZM81.74,135.81c-3.18,1.04-6.26,1.47-8.92.75-4.62-1.42-5.85-5.33-5.85-11.12l-1.29-95.96c0-.45.33-.84.78-.88,5.26-.37,10.15-6.33,12.19-3.73,2.15,2.72,3.08,21.85,3.08,28.84v82.1Z"/>
      <path class="cls-1" d="M394.05,126.05c-10.08,4.56-12.69,2.56-14.01.85-1.02-1.36-.6-4.87-.81-7.82h0s-.12-44.51-.12-44.51c-2.19-25.46-23.01-21.61-23.01-21.61l-36.11,20.09.48,2.6s4.01-1.11,4.33,4.05v46.94c0,4.5.82,8.62,2.49,12.35,1.64,3.73,3.6,6.74,5.84,8.98,2.24,2.2,4.23,3.31,6,3.31,1.07,0,11.05.84,17.27-2.62,2.94-1.64,22.89-12.73,22.89-12.73v-.58s14.47-8.35,14.47-8.35l.31-.94ZM353.03,148.44c-5.55,0-8.55-16.77-8.55-25.1v-62.19c2.02-1.72,4.17-2.56,6.41-2.56,5.55,0,8.49,5.18,8.33,18.78l.22,67.91c-2.15,1.81-4.26,3.16-6.41,3.16Z"/>
      <rect class="cls-1" x="182.88" y="15.8" width="18.18" height="18.18" transform="translate(13.28 99.32) rotate(-30)"/>
      <polygon class="cls-1" points="246.74 94.12 211.97 94.12 221.64 75.66 256.41 75.66 246.74 94.12"/>
      <path class="cls-1" d="M188.83,132.65c-10.45,6.55-17.13,7.45-19.9,1.88l-.17-60.06c.12-12.57,4.53-10.81,4.53-10.81v-2.52l-27.54-8.28-28.42,13.92c-1.81,1.32-2.88,3.42-2.88,5.66v54.11c0,4.5.82,8.62,2.49,12.35,1.64,3.73,9.18,11.04,11.89,11.67,8.87,2.06,9.82.85,20.68-5.69.09.1,2.91,6.39,8.92,6.39l30.81-17.91-.42-.71ZM149.09,143.5c-2.15,1.81-5.8,4.05-7.95,4.05-5.55,0-8.6-16.16-8.6-24.49v-62.19c2.02-1.72,17.51-5.34,16.34,22.44l.21,60.18Z"/>
    </g>
  </g>
</svg>