<svg viewBox="0 0 152.32 46.65" xmlns="http://www.w3.org/2000/svg"><path d="m3.12 39.67v-26.26c0-1.15-.25-2.14-.74-2.97-.47-.83-1.07-1.24-1.8-1.24v-1.14c.24-.03 2.12-1.09 5.66-3.17.12.03.25.08.41.13.15.03.31.08.48.15.34.12.8.46 1.37 1.02.58.56.86 1.2.86 1.93.2-.1.79-.43 1.75-.99 2.57-1.46 4.16-2.18 4.77-2.18s1.29.31 2.03.94 1.3 1.37 1.68 2.23c.03-.02.23-.12.58-.3.36-.19.87-.45 1.55-.79 2.71-1.39 4.34-2.08 4.9-2.08.74 0 1.46.35 2.16 1.04.69.69 1.27 1.52 1.73 2.49.46.96.69 1.85.69 2.67v26.15c0 1.93.85 3.06 2.54 3.38v1.14l-5.66 3.17c-.76-.3-1.47-.81-2.13-1.52s-.99-1.38-.99-2.01v-25.51c0-2.08-.34-3.53-1.02-4.34s-1.9-1.25-3.66-1.32v26.99c0 1.93.85 3.06 2.54 3.38v1.14l-5.66 3.17c-.76-.3-1.47-.81-2.13-1.52s-.99-1.38-.99-2.01v-25.49c0-2.18-.32-3.67-.96-4.47s-1.88-1.19-3.71-1.19v26.69c0 1.27.14 2.18.41 2.74s.85.84 1.73.84v1.6l-10.67 4.49-.84-1.68c.76 0 1.49-.45 2.18-1.35.63-.85.94-2.17.94-3.96zm49.36-17.47v14.73c0 1.27.2 2.16.61 2.67.42.51 1.07.86 1.93 1.07v1.14l-5.66 3.17c-.76-.3-1.47-.81-2.13-1.52s-.99-1.36-.99-1.96l-6.5 3.48c-.05-.03-.12-.07-.2-.1-.07-.05-.15-.11-.25-.18-.22-.12-.58-.38-1.09-.79-.49-.41-.93-.83-1.32-1.27-1.03-1.13-1.55-2.44-1.55-3.91v-8.53c0-.37.42-.82 1.27-1.35.86-.52 1.92-1.05 3.17-1.57s2.47-.97 3.66-1.35l2.77-.86c0-1.32-.22-2.36-.66-3.12-.44-.78-1.21-1.34-2.31-1.68-1.08-.34-2.62-.51-4.62-.51v-1.57c5.33-1.9 8.35-2.84 9.04-2.84.78 0 1.53.36 2.26 1.07.74.69 1.36 1.57 1.85 2.62s.74 2.11.74 3.17zm-10.92 14.68c0 .88.27 1.61.81 2.18.54.58 1.14.86 1.8.86.66-.02 1.35-.27 2.06-.76v-11.76c-.86.3-1.51.57-1.96.79-.42.2-.88.52-1.37.96-.9.85-1.35 2.29-1.35 4.32v3.4zm15.34-28.04v-3.17c0-.05.21-.17.63-.36.44-.19.95-.39 1.52-.61.59-.22 1.13-.41 1.6-.56.49-.17.8-.25.91-.25.24 0 .57.3.99.89s.63 1.2.63 1.83v3.78c0 .05-.21.17-.63.36-.41.19-.89.39-1.45.61s-1.08.41-1.57.58c-.49.15-.81.23-.96.23-.41 0-.79-.35-1.14-1.04-.36-.69-.53-1.46-.53-2.29zm7.03 10.03v18.41c0 2.1.71 3.29 2.13 3.58v1.14l-5.26 2.97c-.76-.3-1.47-.81-2.13-1.52s-.99-1.38-.99-2.01v-18.41c0-2.13-.71-3.33-2.13-3.61v-1.14l5.26-2.95c.76.3 1.47.81 2.13 1.52s.99 1.38.99 2.01zm4.14 11.38 3.12-2.95h13.56v1.24l-3.1 2.84h-13.58v-1.14zm27.09 1.22v5.81c0 2.1.71 3.29 2.13 3.58v1.14l-5.26 2.97c-.76-.3-1.47-.81-2.13-1.52s-.99-1.38-.99-2.01v-25.74c0-.93-.16-6.58-.48-6.97-.3-.41-.84-.61-1.6-.61v-1.47c2.25-1.18 4.38-2.33 6.4-3.43 2.01-1.12 3.9-2.19 5.66-3.22l.84 1.68c-.36.17-.85.51-1.47 1.02-.61.49-1.13 1-1.55 1.52-1.03 1.3-1.55 2.79-1.55 4.47v9.78c3.23-2.08 5.14-3.12 5.71-3.12.64 0 1.35.3 2.13.89.78.58 1.45 1.33 2.01 2.26.57.93.86 1.92.86 2.97v5.69c0 .36-1.8 1.24-5.41 2.64 2.18 5.79 4.31 9.12 6.37 9.98.61.3 1.34.5 2.18.58v1.5c-3.22 2.08-5.24 3.12-6.07 3.12-.44 0-.95-.31-1.52-.94-.58-.64-1.18-1.48-1.8-2.51-.63-1.03-1.23-2.15-1.8-3.35-.58-1.22-1.1-2.41-1.57-3.58-.46-1.18-.82-2.23-1.09-3.12zm1.65-11.1-1.65.28v8.25c.69 0 1.94-.43 3.73-1.29l.94-.46v-2.36c0-2.95-1.01-4.42-3.02-4.42zm13.39 17.01v-17.27c0-.1.39-.32 1.17-.66.8-.36 1.79-.76 2.97-1.22 1.19-.46 2.39-.91 3.61-1.35 1.24-.46 2.32-.83 3.25-1.12s1.51-.43 1.75-.43c.3 0 .7.2 1.19.61.49.39.98.9 1.47 1.52.51.63.93 1.29 1.27 1.98.36.68.53 1.29.53 1.85v18.84c0 .1-.38.33-1.14.69-.75.36-1.68.77-2.82 1.24-1.13.46-2.31.91-3.53 1.35-1.2.44-2.29.81-3.25 1.12-.95.29-1.59.43-1.93.43-.56 0-1.19-.34-1.9-1.02-.71-.69-1.33-1.62-1.85-2.77-.53-1.15-.79-2.42-.79-3.81zm8.88 2.82c.68 0 1.35-.28 2.03-.84v-15.34c0-2.57-.88-3.86-2.64-3.86-.71 0-1.39.26-2.03.79v15.39c0 2.57.88 3.86 2.64 3.86zm19.76-3.32c0 .88.27 1.61.81 2.18 1.07 1.12 2.35 1.15 3.86.1v-16.17c0-2.13-.71-3.33-2.13-3.61v-1.14l5.26-2.95c.76.3 1.47.81 2.13 1.52s.99 1.38.99 2.01v17.62c0 1.15.25 2.14.74 2.97s1.1 1.24 1.83 1.24v1.14c-.25.02-2.15 1.07-5.69 3.17-.8-.34-1.51-.85-2.16-1.52-.64-.68-.96-1.33-.96-1.96l-6.5 3.48c-.05-.03-.12-.07-.2-.1-.07-.05-.15-.11-.25-.18-.2-.12-.56-.38-1.07-.79s-.95-.83-1.32-1.27c-1.05-1.15-1.57-2.45-1.57-3.91v-15.74c0-1.93-.85-3.06-2.54-3.38v-1.14l5.66-3.17c.76.3 1.47.81 2.13 1.52s.99 1.38.99 2.01v18.05z" fill="#fff"/></svg>