<?xml version="1.0" encoding="UTF-8"?>
<svg id="_レイヤー_2" data-name="レイヤー 2" xmlns="http://www.w3.org/2000/svg" viewBox="0 0 104.42 581.84">
  <defs>
    <style>
      .cls-1 {
        fill: none;
      }

      .cls-2 {
        fill: #fff;
      }
    </style>
  </defs>
  <g id="_レイヤー_1-2" data-name="レイヤー 1">
    <g>
      <g>
        <path class="cls-2" d="M18.69,22.71c.03.29.09.65.16,1.05.07.41.16.74.29,1,.12.26.33.42.61.48.29.06.55.09.79.09.8,0,1.45-.26,1.96-.77.51-.51.77-1.37.77-2.59,0-.54-.05-1.03-.14-1.48-.1-.45-.26-.84-.49-1.18s-.55-.62-.94-.83-.88-.36-1.47-.43v-1.59c.8.05,1.48.23,2.04.55.56.31,1.02.71,1.38,1.21.35.49.61,1.07.78,1.72.16.65.25,1.34.25,2.07,0,.68-.07,1.31-.22,1.91-.15.6-.38,1.12-.7,1.56-.32.44-.75.79-1.29,1.04-.54.25-1.2.38-1.98.38h-7.33c-.61,0-.99.11-1.16.33-.17.22-.13.65.12,1.31h-1.22c-.03-.12-.09-.3-.16-.53-.07-.23-.1-.46-.1-.69,0-.24.03-.48.08-.7.03-.26.12-.47.25-.62.13-.16.29-.28.47-.38.18-.1.38-.16.6-.2.22-.03.45-.05.69-.05-.73-.66-1.28-1.41-1.66-2.26-.38-.85-.57-1.77-.57-2.76,0-.59.08-1.16.23-1.7.16-.55.4-1.03.73-1.44.33-.42.73-.75,1.21-.99.48-.24,1.04-.36,1.7-.36,2.29,0,3.64,1.57,4.06,4.71l.29,2.16ZM17.91,25.34c-.28-.66-.46-1.33-.55-2-.09-.68-.16-1.35-.21-2.03-.09-1.2-.36-2.13-.81-2.79-.45-.67-1.14-1-2.05-1-.42,0-.78.08-1.08.25-.3.16-.55.38-.75.65-.2.27-.35.58-.44.94-.1.35-.14.71-.14,1.08,0,.62.08,1.23.23,1.82.16.59.39,1.11.71,1.57.32.46.73.83,1.22,1.1s1.08.42,1.75.42h2.11Z"/>
        <path class="cls-2" d="M10.84,75.15v-1.56h13.47v1.56h-1.87c.66.62,1.2,1.27,1.61,1.94.42.67.62,1.47.62,2.41,0,.83-.14,1.6-.43,2.31-.29.71-.78,1.31-1.49,1.79-.49.33-.98.52-1.5.58-.51.06-1.04.09-1.6.09h-8.81v-1.56h8.79c1.21,0,2.12-.27,2.73-.81.61-.54.91-1.43.91-2.68,0-.49-.07-.93-.22-1.33-.15-.4-.34-.76-.58-1.08-.24-.32-.52-.59-.83-.82-.31-.23-.64-.4-.99-.52-.43-.16-.85-.25-1.25-.29-.4-.04-.83-.05-1.3-.05h-7.25Z"/>
        <path class="cls-2" d="M10.84,132.22v-1.56h13.47v1.56h-1.87c.66.62,1.2,1.27,1.61,1.94.42.67.62,1.47.62,2.41,0,.83-.14,1.6-.43,2.31-.29.71-.78,1.31-1.49,1.79-.49.33-.98.52-1.5.58-.51.06-1.04.09-1.6.09h-8.81v-1.56h8.79c1.21,0,2.12-.27,2.73-.81.61-.54.91-1.43.91-2.68,0-.49-.07-.93-.22-1.33-.15-.4-.34-.76-.58-1.08-.24-.32-.52-.59-.83-.82-.31-.23-.64-.4-.99-.52-.43-.16-.85-.25-1.25-.29-.4-.04-.83-.05-1.3-.05h-7.25Z"/>
        <path class="cls-2" d="M10.47,193.09c.02-.87.17-1.68.47-2.43s.74-1.41,1.33-1.98c.59-.56,1.33-1.01,2.21-1.34.88-.33,1.92-.49,3.09-.49.99,0,1.91.13,2.77.39s1.61.65,2.25,1.17c.64.52,1.15,1.17,1.52,1.95.37.78.56,1.69.56,2.73s-.19,1.98-.56,2.76c-.37.78-.88,1.43-1.51,1.95-.63.52-1.38.91-2.25,1.16-.87.25-1.79.38-2.78.38-1.07,0-2.05-.15-2.91-.44-.87-.29-1.61-.72-2.24-1.26s-1.1-1.2-1.44-1.98-.51-1.62-.51-2.56ZM17.57,197.66c.8,0,1.54-.09,2.24-.26.69-.17,1.3-.44,1.81-.81.51-.36.91-.83,1.21-1.4s.44-1.27.44-2.11-.16-1.51-.48-2.09-.75-1.05-1.27-1.42-1.14-.63-1.82-.81c-.69-.17-1.39-.26-2.12-.26-.83,0-1.6.1-2.3.3-.7.2-1.3.49-1.81.87-.5.38-.89.86-1.17,1.43-.28.57-.42,1.23-.42,1.98,0,.82.16,1.51.48,2.09.32.58.75,1.05,1.29,1.42.54.36,1.14.63,1.82.81.68.17,1.38.26,2.11.26Z"/>
        <path class="cls-2" d="M10.84,345.84v-1.56h13.47v1.56h-2.03v.05c.78.4,1.37.97,1.78,1.72.41.75.61,1.56.61,2.44,0,.62-.07,1.15-.21,1.59-.14.43-.33.8-.56,1.1-.23.3-.51.55-.82.75s-.65.37-1.01.51c.88.45,1.54,1.05,1.96,1.81s.64,1.62.64,2.59c0,.92-.15,1.65-.46,2.2-.3.55-.7.97-1.2,1.26-.49.29-1.06.49-1.7.58-.64.09-1.3.14-1.98.14h-8.5v-1.56h9.31c.97,0,1.73-.2,2.29-.61.55-.41.83-1.17.83-2.27,0-.57-.13-1.12-.38-1.65-.25-.53-.64-.99-1.16-1.39-.23-.17-.49-.32-.79-.43-.3-.11-.62-.2-.95-.27-.33-.07-.66-.12-.99-.14-.33-.03-.63-.04-.91-.04h-7.25v-1.56h9.31c.97,0,1.73-.2,2.29-.61.55-.41.83-1.17.83-2.27,0-.57-.13-1.12-.38-1.65-.25-.53-.64-.99-1.16-1.39-.23-.17-.49-.32-.79-.43-.3-.11-.62-.2-.95-.27-.33-.07-.66-.12-.99-.14-.33-.03-.63-.04-.91-.04h-7.25Z"/>
        <path class="cls-2" d="M18.69,414.95c.03.29.09.65.16,1.05.07.41.16.74.29,1,.12.26.33.42.61.48.29.06.55.09.79.09.8,0,1.45-.26,1.96-.77.51-.51.77-1.37.77-2.59,0-.54-.05-1.03-.14-1.48-.1-.45-.26-.84-.49-1.18s-.55-.62-.94-.83-.88-.36-1.47-.43v-1.59c.8.05,1.48.23,2.04.55.56.31,1.02.71,1.38,1.21.35.49.61,1.07.78,1.72.16.65.25,1.34.25,2.07,0,.68-.07,1.31-.22,1.91-.15.6-.38,1.12-.7,1.56-.32.44-.75.79-1.29,1.04-.54.25-1.2.38-1.98.38h-7.33c-.61,0-.99.11-1.16.33-.17.22-.13.65.12,1.31h-1.22c-.03-.12-.09-.3-.16-.53-.07-.23-.1-.46-.1-.69,0-.24.03-.48.08-.7.03-.26.12-.47.25-.62.13-.16.29-.28.47-.38.18-.1.38-.16.6-.2.22-.03.45-.05.69-.05-.73-.66-1.28-1.41-1.66-2.26-.38-.85-.57-1.77-.57-2.76,0-.59.08-1.16.23-1.7.16-.55.4-1.03.73-1.44.33-.42.73-.75,1.21-.99.48-.24,1.04-.36,1.7-.36,2.29,0,3.64,1.57,4.06,4.71l.29,2.16ZM17.91,417.57c-.28-.66-.46-1.33-.55-2-.09-.68-.16-1.35-.21-2.03-.09-1.2-.36-2.13-.81-2.79-.45-.67-1.14-1-2.05-1-.42,0-.78.08-1.08.25-.3.16-.55.38-.75.65-.2.27-.35.58-.44.94-.1.35-.14.71-.14,1.08,0,.62.08,1.23.23,1.82.16.59.39,1.11.71,1.57.32.46.73.83,1.22,1.1s1.08.42,1.75.42h2.11Z"/>
        <path class="cls-2" d="M10.84,466.06h13.47v1.56h-13.47v-1.56ZM27.24,465.98h2.31v1.72h-2.31v-1.72Z"/>
        <path class="cls-2" d="M10.84,514.11h18.72v1.56h-11.65l6.4,6.6v2.13l-4.86-5.04-8.61,5.64v-1.74l7.51-5.04-2.42-2.55h-5.1v-1.56Z"/>
        <path class="cls-2" d="M18.69,576.01c.03.29.09.65.16,1.05.07.41.16.74.29,1,.12.26.33.42.61.48.29.06.55.09.79.09.8,0,1.45-.26,1.96-.77.51-.51.77-1.37.77-2.59,0-.54-.05-1.03-.14-1.48-.1-.45-.26-.84-.49-1.18s-.55-.62-.94-.83-.88-.36-1.47-.43v-1.59c.8.05,1.48.23,2.04.55.56.31,1.02.71,1.38,1.21.35.49.61,1.07.78,1.72.16.65.25,1.34.25,2.07,0,.68-.07,1.31-.22,1.91-.15.6-.38,1.12-.7,1.56-.32.44-.75.79-1.29,1.04-.54.25-1.2.38-1.98.38h-7.33c-.61,0-.99.11-1.16.33-.17.22-.13.65.12,1.31h-1.22c-.03-.12-.09-.3-.16-.53-.07-.23-.1-.46-.1-.69,0-.24.03-.48.08-.7.03-.26.12-.47.25-.62.13-.16.29-.28.47-.38.18-.1.38-.16.6-.2.22-.03.45-.05.69-.05-.73-.66-1.28-1.41-1.66-2.26-.38-.85-.57-1.77-.57-2.76,0-.59.08-1.16.23-1.7.16-.55.4-1.03.73-1.44.33-.42.73-.75,1.21-.99.48-.24,1.04-.36,1.7-.36,2.29,0,3.64,1.57,4.06,4.71l.29,2.16ZM17.91,578.64c-.28-.66-.46-1.33-.55-2-.09-.68-.16-1.35-.21-2.03-.09-1.2-.36-2.13-.81-2.79-.45-.67-1.14-1-2.05-1-.42,0-.78.08-1.08.25-.3.16-.55.38-.75.65-.2.27-.35.58-.44.94-.1.35-.14.71-.14,1.08,0,.62.08,1.23.23,1.82.16.59.39,1.11.71,1.57.32.46.73.83,1.22,1.1s1.08.42,1.75.42h2.11Z"/>
      </g>
      <path class="cls-1" d="M70,201.57c-1.33,3.95-1.96,5.1-1.54,9.83l.39,4.43c.17,1.92.61,3.82,1.18,5.61.2.63.05,1.22,1.05,1.37.3-.56.46-1.26.5-2.08l.12-2.74c.04-.78.25-1.4.51-2.16.28-.8.54-5.61.02-6.83l.16-2.59.22-6.4c.03-.95.86-1.86.15-2.9-1.31,1.35-2.2,2.81-2.76,4.48Z"/>
      <path class="cls-1" d="M78.55,496.72c.38-.42.56-.92.78-1.45.76-1.87,1.97-3.35.77-5.05-.55-.77-1.13-1.85-1.84-2.34l-2.37-.11c-.48-.02-1.6.01-1.98.32-1.79,1.41-3.1,4.86-3.14,6.43l-.07,2.78c-.06,2.23-.74,4.25-.69,6.5,3.02-1.96,2.02-1.72,5.07-3.48,1.46-.85,2.4-2.4,3.47-3.6Z"/>
      <path class="cls-1" d="M52.76,384.34c-2.4,2.21-2.31,3.94-4.5,7.53-.79,1.29-.89,3.36-1.22,4.39l-2.11,6.5c-.65,1.99-1.35,3.8-1.73,5.88-.47,2.63-1.11,5.15-1.84,7.73l-.82,2.89c-.22.78-.24,1.46-.06,2.25.22-.34.38-.62.53-1.02l1.63-4.52c.82-2.26,1.8-4.35,2.58-6.62l2-5.8c.72-2.07,1.23-4.05,1.87-6.15,1.01-3.3,2.46-6.39,3.74-9.58.68-1.7,1.82-3.09,1.66-5.15-.7.39-1.18,1.15-1.74,1.67Z"/>
      <path class="cls-1" d="M59.25,194.41c.05-.53.23-.99.36-1.55.79-3.28.32-4.31.39-7.04.03-1.45.06-2.93-.1-4.34-.07-.57-.3-1.07-.18-1.67.08-.4,0-.84-.22-1.05-1.13,2.18-1.53,4.26-1.84,6.55l-.4,2.95-.63,4.38-.5,3.76c-.14,1.05-.15,2.22-.22,3.3,1.53.88,3.2-3.84,3.35-5.3Z"/>
      <path class="cls-1" d="M66.13,114.03c.05-2.59-.12-5.05-.09-7.61.01-1.18-.29-2.41-.34-3.54l-.07-1.58-1.55,2.24-2.82,4.45c-1.02,1.61-1.78,3.71-2.46,5.43l-.92.73,1.46,2.11c1.48,2.14,1.6,2.94,3.39,5.19,1.73,2.18,1.31,2.65,2.5,3.27.85-1.21.36-2.29.54-3.41.08-.5.4-1.24.38-1.77l-.07-2.53.06-2.98Z"/>
      <path class="cls-1" d="M65.02,55.97c.17-.85.22-1.52-.15-2.2-.09-.31-.09-.42-.22-.5-1.08-.65-1.01,4.41-.08,4.9l.45-2.2Z"/>
      <path class="cls-1" d="M53.83,26.54c-.68-.31-.96.22-1.27.47-.08.06.27,8.79-1.03,3.67l.73,2.87c.18.71.25,1.57,1.06,1.69-.13-1.68-.23-3.07-.05-4.5l.55-4.2Z"/>
      <path class="cls-1" d="M69.29,67.77l.4-3.37c.06-.5.4-1.3.41-1.78l.17-9.3c.02-.95.72-3.47.57-4.69l-.4-3.2c-.07-.54-.11-.99-.46-1.39-.3,2.17-.74,4.1-.78,6.22l-.13,6.2-.2,2.79c-.13,1.83-.39,3.55-.36,5.4.03,1.57.08,2.96.29,4.43.3-.49.43-.89.48-1.31Z"/>
      <path class="cls-1" d="M77.98,364.01c1.27-1.73-.43-3.49-.83-5.6-.04-.19-.34-.57-.46-.47-.09.07-.34.36-.37.48l-.4,1.76c-.4,1.77-.66,3.5-.85,5.31,1.38.14,2.29-.63,2.91-1.48Z"/>
      <path class="cls-1" d="M59.66,100.68c.47-1.18.85-2.33,1.23-3.54l.6-.55c.61-1.92,1.35-3.66,2.14-5.49l1.16-2.7c-.18-.72-.48-1.57-.81-2.5-.85.6-1.24,1.24-1.83,1.95l-1.63,1.99c-1.18,1.45-2.79,2.53-4.29,3.66-2.13,1.6-3.57,3.58-5.04,5.77-.96,1.42-1.81,2.95-.96,4.74.62,1.31,1.87,2.38,2.76,3.53l1.5,1.94.8,1.27c1.03-.96.32-2,1.81-3.9.8-1.02,1-2.22,1.43-3.32l1.13-2.87Z"/>
      <path class="cls-1" d="M79.05,217.66c.33-1.03.94-2,.77-3.15-.2-.1-.75-.09-.95.04-2.46,1.56-3.25,1.33-3.33,3.05l-.13,2.65-.18,5.65.33,4.49c.04.52,0,1.05.32,1.18-.09-4.75,1-5.36,1.95-9.13.41-1.62.72-3.22,1.22-4.79Z"/>
      <path class="cls-1" d="M50.55,315.18c3.39-2.98,3.55-4.97,7.38-8.64.78-.75,1.39-1.52,2.06-2.37.52-.67,1.24-1.28,1.86-1.88l1.73-1.68c.39-.37.84-.79.67-1.31l-2.53,2.04-5.59,5.62c-2.75,2.76-3.96,4.55-5.57,8.23Z"/>
      <path class="cls-1" d="M54.58,342.09c1.26-1.09,1.15-2.17,1.52-3.86.16-.71.58-1.27.43-2.08-1.21.51-2.27,1.1-3.01,2.26l.63,3.34c.03.14.34.42.44.34Z"/>
      <path class="cls-1" d="M89.18,187.17c-3.13-1.72-3.69-.89-6.12.74l-3.57,2.4c-.65.44-1.12.6-1.19,1.49l-.48,5.5-.39,3.18c-.35,2.9.13,3.89-.38,7.03-.08.52-.38,5.06.22,4.68l.43-.28c.64-.42,1.24-.62,2.04-.79,1.21-.26,2.75.08,3.07,1.56.12.55-.04,1.47,0,2.09.11,1.82.25,3.4-.47,5-.34.74-.36,1.8-.59,2.62l-.77,2.7-.87,2.96c-.42,1.43-.86,2.65-1.15,4.08-.46,2.28-.9,4.45-1.17,6.77-.12,1.05-.62,2.19.31,3.09.72-1.82,1.51-3.48,2.03-5.26l1.43-4.91.86-2.96.55-1.88.98-3.84c.25-.97.4-1.97.6-2.98l.39-2.01c.3-1.51.57-3.03.78-4.57l.33-2.33,1.55-9.66c.47-2.9.69-5.69.75-8.62.07-.34.52-1.07.54-1.42l.17-3.07c.02-.33.55-1.11.13-1.35Z"/>
      <path class="cls-1" d="M58,329.16l.34-3.53c-2.49,1.14-5.12,4.7-4.47,7.54,1.77-.65,3.93-1.95,4.13-4.01Z"/>
      <path class="cls-1" d="M67.95,473.11c-.68.77-1.29,1.38-2.12,1.95-1.13.77-1.62,2.3-2.43,3.33-.62.79-2.45,3.12-1.96,4.32l5.11-1.95c1.91-.73,1.17-2.37,2.27-3.16l.22,1.73c.28.03,1.05.04,1.37-.12l2.84-1.41,7.45-3.7c.52-.26.99-.49,1.52-.68l1.77-.62c.36-.13.82-.35,1.01-.56s.19-1.02.06-1.21c-1.66-.35-3.23-.87-4.84-1.36l-2.15-.66c-.56-.17-1.71.38-2.29.06-.69-.38-1.44-.88-2.17-.88h-1.87s-1.26,2.32-1.26,2.32c-.57,1.04-1.75,1.74-2.52,2.6Z"/>
      <path class="cls-1" d="M63.29,328.45c1.3-.41,2.79-1.33,3.25-2.68.34-.99.16-2.38.25-3.38,1.49-.54,1.54-1.42,2.18-.67.44.52.86.72,1.58.96l-.21,2.22c.42.16,1.1.07,1.55-.17,1.44-.75,2.81-1.48,4.3-2.06,2.14-.83,20.3-14.94,22.23-16.41l-4.09-.62-1.52-.31c-1.7-.34-18.8,12.74-20.4,13.5-2.34,1.11-4.69,1.96-7.11,2.91-.89.35-1.7.93-2.6,1.44.04,2.46.79,3.33.6,5.27Z"/>
      <path class="cls-1" d="M52.68,489.7c-.94,1.17-3.27,1.78-3.09,2.55l.56,2.44c.04.17.39.46.54.45.25-.01.44-1.02,1.19-2.35.23-.4,1.77-3.08.8-3.1Z"/>
      <path class="cls-1" d="M64.12,470.36c.87-.32,1.57-.3,2.09-1.25.26-.48.64-1.29.14-1.75-3.04.41-4.17-.47-7.42.08-1.45-.21-2.87.02-4.36-.05l-2-.1c-1.84-.09-3.56-.15-5.31-.29-1.46-.12-2.53,1.05-2.9,2.32-.55,1.87.14,6.64.86,8.73l1.39,4.02c1.01,2.91.24,3.51.95,3.96.2.12.74-.02.93-.2l1.89-1.71,3.18-3.03c1.6-1.53,2.48-1.96,4.14-3.54l2.01-1.92c2.61-2.49,2.95-4.76,4.41-5.29Z"/>
      <path class="cls-2" d="M83.93,125.01c-.07-1.78.13-3.58-.88-5.17-.56-.89-.75-1.57-.78-2.65-.01-.5-.49-1.28-.59-1.82-.48-2.6-1.42-3.41-2.68-5.9-.4-.79-.59-1.52-1.3-2.19-2.35-2.23-1.64-3.43-6.27-6.27-.27-.17-.77-.61-1.05-.71-1.61-.6-3.21-1.24-4.73-1.93-.15-.49-.14-1.21-.19-1.72l-.7-6.38c-.07-.67.31-1.14.78-1.61l4.34-6.37c.43-.42.84-1.37.97-1.99.17-.81-.74-2.23-1.72-2.43-1.25-.26-4.35,2.84-4.51,2.6-.13-.2-.2-.72-.19-.97l.07-2.25c.04-1.11,0-2.36.55-3.35.91-1.64,2.82-2.94,3.38-4.64.39-1.17.1-2.58.64-3.76.87-1.94.8-3.8.76-5.83l-.07-3.8c-.02-.91.28-1.76.48-2.65.8-3.58.23-4.78-.29-8.18-.17-1.14-.34-2.19-.69-3.3-.57-1.78,28.33-16.22,28.87-17.4.28-.6.22-1.54-.26-1.98-.72-.67-28.97,15.18-28.79,14.37.11-.48.96-1.03,1.37-1.52l1.93-2.3c.96-1.15,7.57-6.32,8.66-7.39l4.08-3.99c.92-.9,1.32-1.83,1.3-2.99l-.05-2.16-2.56-2.58c-.88-.89-1.72-1.38-3.17-1.75-1.03-.26-2.38-.91-3.52-.75l-2.89.4-8.96,4.88c-.86.14-1.76.53-2.54.96-1.42.78-2.42.67-2.21.28l.17-.33c2.02-3.77,2.59-4,.32-9.02-.42-.92-.95-1.5-1.77-2.25-.61-.56-9.91-5.76-10.93-5.83-.81-.06-1.31-.08-2.2-.33-.61-.17-1.29.46-1.61.91-.32.45-.04,1.11.11,1.73l.78,3.05c.05.21.56.64.8.61.24-.03.72-.12,1.01-.19l.7-.17c.15-.04.37.26.39.4l8.94,6.72.23,1.98c-.85,1.28-2.08,2.44-3.48,3.31l-2.3,1.42c-1.83,1.13-2.06,3.63-3.76,4.96-1.78.66-3.9,1.01-5.37,2.16-1.14.89-2.28,2.1-2.97,3.22-1.1,1.79-.16,3.7.2,5.45.28,1.36.62,2.4,2.35,2.89l2.3,2.73c.32.38,1.74.6,2.3.59,6.38-3.17-.03-5.99,4.6-13.55.52-.86.65-3.13,1.42-3.61.82-.51,1.51-1.12,2.52-1.44,2.58-.83,4.96-1.72,7.45-2.69,3.99-1.56,11.66-6.38,16.3-6.42l2.76.89c.4.26,1.56,2.76,1.65,3.13.43,1.67-.73,1.48-3.39,3.83l-10.39,8.59c-.76.67-1.44,1.56-2.12,2.3l-1.98,2.17c-4.17,4.56-3.73,1.82-11.36,4.98-3.32,3.11-3.78,1.8-7.21,4.91l-2.27,2.05c-.59.53-1.15,1.66-1.43,2.35l-.95,2.38c-.21.53-.04,1.51.8,1.58.73.06,1.87.06,2.49,0l4.62-2.05c.82-.36,1.74-.92,2.54-1.36l2.53-1.37c.14-.07.23-.13.23-.05l.02.43c0-.06-2.34,4.99-2.32,6.42.01,1.4.63,4.47,1.17,5.54l2.71,5.35c.58,1.15,1.96,2.42,1.97,3.78l.06,13.49c-.85.39-1.61.41-2.59.57-.95.16-2.44.93-3.06,1.56-1.59,1.6-14.43-8.97-20.83-10.02l-5.58,2.05c-2.03,1.11-3.86,2.76-5.14,4.38-.8,1.02-1.61,1.8-2.64,2.69-.94,4-.35,5.91,3.06,8.91,1.05.92,1.74,1.96,2.72,2.9l20.47,16.69c.74.7,1.32,1.35,1.92,2.14l4.16,5.51,2.5,2.82c.45.5.87.99,1.39,1.56,1.59,1.72,5.01,2.84,7.5,1.72,1.96-.88,2.55-5.38,2.48-7.05-.22-5.26.63-8.8.12-14.11l-.35-3.69c-.02-.17.28-.75.45-.66l2.76,1.45c3.14,1.65,3.59,1.91,5.45,4.45.73,1,1.39,1.98,1.83,3.15l.97.78,1.43,3.31,1.06,2.61c1.26,3.12,1.66,4.65,1.98,7.88.12,1.19-5.66,7.14-5.92,7.71l5.02-.11c.23-.7,3.64-6.89,3.61-7.61ZM45.94,37.37c-1.04-.12-1.12-.98-1.35-1.69l-.93-2.87c-.48-1.47-.23-2.7,1.31-3.67.4-.25.75-.78,1.61-.47l-.71,4.2c-.24,1.43-.11,2.82.06,4.5ZM59.31,53.27c.17.08.17.19.28.5.47.68.41,1.35.19,2.2l-.58,2.2c-1.18-.5-1.27-5.55.1-4.9ZM47.4,110.76l-1.02-1.27-19.52-15.91c-1.13-1.15-2.72-2.22-3.52-3.53-1.08-1.79,0-3.31,1.23-4.74,1.88-2.18,3.71-4.16,6.42-5.77,1.9-1.12,21.56,11.76,23.06,10.31l2.07-1.99c.74-.72,1.24-1.35,2.33-1.95.43.93.81,1.77,1.03,2.5l-1.48,2.7c-1,1.83-1.94,3.58-2.72,5.49l-.77.55c-.48,1.21-.97,2.36-1.56,3.54l-1.44,2.87c-.55,1.1-.81,2.3-1.83,3.32-1.89,1.89-.99,2.93-2.3,3.9ZM60.72,121.31c-.22,1.12.39,2.19-.68,3.41-1.52-.61-.97-1.09-3.18-3.27-2.28-2.25-2.43-3.05-4.32-5.19l-1.86-2.11,1.17-.73c.86-1.73,1.84-3.82,3.14-5.43l3.6-4.45,1.98-2.24.09,1.58c.06,1.14.44,2.36.43,3.54-.03,2.56.19,5.02.12,7.61l-.08,2.98.09,2.53c.02.53-.39,1.27-.49,1.77ZM64.7,59.25l.26-2.79.17-6.2c.06-2.12.61-4.05,1-6.22.44.4.5.86.58,1.39l.51,3.2c.19,1.22-.7,3.74-.73,4.69l-.22,9.3c-.01.48-.45,1.28-.53,1.78l-.51,3.37c-.06.42-.23.81-.61,1.31-.27-1.47-.34-2.87-.37-4.43-.04-1.85.28-3.57.45-5.4Z"/>
      <path class="cls-1" d="M64.12,470.36c.87-.32,1.57-.3,2.09-1.25.26-.48.64-1.29.14-1.75-3.04.41-4.17-.47-7.42.08-1.45-.21-2.87.02-4.36-.05l-2-.1c-1.84-.09-3.56-.15-5.31-.29-1.46-.12-2.53,1.05-2.9,2.32-.55,1.87.14,6.64.86,8.73l1.39,4.02c1.01,2.91.24,3.51.95,3.96.2.12.74-.02.93-.2l1.89-1.71,3.18-3.03c1.6-1.53,2.48-1.96,4.14-3.54l2.01-1.92c2.61-2.49,2.95-4.76,4.41-5.29Z"/>
      <path class="cls-1" d="M67.95,473.11c-.68.77-1.29,1.38-2.12,1.95-1.13.77-1.62,2.3-2.43,3.33-.62.79-2.45,3.12-1.96,4.32l5.11-1.95c1.91-.73,1.17-2.37,2.27-3.16l.22,1.73c.28.03,1.05.04,1.37-.12l2.84-1.41,7.45-3.7c.52-.26.99-.49,1.52-.68l1.77-.62c.36-.13.82-.35,1.01-.56s.19-1.02.06-1.21c-1.66-.35-3.23-.87-4.84-1.36l-2.15-.66c-.56-.17-1.71.38-2.29.06-.69-.38-1.44-.88-2.17-.88h-1.87s-1.26,2.32-1.26,2.32c-.57,1.04-1.75,1.74-2.52,2.6Z"/>
      <path class="cls-1" d="M63.29,328.45c1.3-.41,2.79-1.33,3.25-2.68.34-.99.16-2.38.25-3.38,1.49-.54,1.54-1.42,2.18-.67.44.52.86.72,1.58.96l-.21,2.22c.42.16,1.1.07,1.55-.17,1.44-.75,2.81-1.48,4.3-2.06,2.14-.83,20.3-14.94,22.23-16.41l-4.09-.62-1.52-.31c-1.7-.34-18.8,12.74-20.4,13.5-2.34,1.11-4.69,1.96-7.11,2.91-.89.35-1.7.93-2.6,1.44.04,2.46.79,3.33.6,5.27Z"/>
      <path class="cls-1" d="M52.76,384.34c-2.4,2.21-2.31,3.94-4.5,7.53-.79,1.29-.89,3.36-1.22,4.39l-2.11,6.5c-.65,1.99-1.35,3.8-1.73,5.88-.47,2.63-1.11,5.15-1.84,7.73l-.82,2.89c-.22.78-.24,1.46-.06,2.25.22-.34.38-.62.53-1.02l1.63-4.52c.82-2.26,1.8-4.35,2.58-6.62l2-5.8c.72-2.07,1.23-4.05,1.87-6.15,1.01-3.3,2.46-6.39,3.74-9.58.68-1.7,1.82-3.09,1.66-5.15-.7.39-1.18,1.15-1.74,1.67Z"/>
      <path class="cls-1" d="M52.68,489.7c-.94,1.17-3.27,1.78-3.09,2.55l.56,2.44c.04.17.39.46.54.45.25-.01.44-1.02,1.19-2.35.23-.4,1.77-3.08.8-3.1Z"/>
      <path class="cls-1" d="M78.55,496.72c.38-.42.56-.92.78-1.45.76-1.87,1.97-3.35.77-5.05-.55-.77-1.13-1.85-1.84-2.34l-2.37-.11c-.48-.02-1.6.01-1.98.32-1.79,1.41-3.1,4.86-3.14,6.43l-.07,2.78c-.06,2.23-.74,4.25-.69,6.5,3.02-1.96,2.02-1.72,5.07-3.48,1.46-.85,2.4-2.4,3.47-3.6Z"/>
      <path class="cls-1" d="M54.58,342.09c1.26-1.09,1.15-2.17,1.52-3.86.16-.71.58-1.27.43-2.08-1.21.51-2.27,1.1-3.01,2.26l.63,3.34c.03.14.34.42.44.34Z"/>
      <path class="cls-1" d="M77.98,364.01c1.27-1.73-.43-3.49-.83-5.6-.04-.19-.34-.57-.46-.47-.09.07-.34.36-.37.48l-.4,1.76c-.4,1.77-.66,3.5-.85,5.31,1.38.14,2.29-.63,2.91-1.48Z"/>
      <path class="cls-1" d="M58,329.16l.34-3.53c-2.49,1.14-5.12,4.7-4.47,7.54,1.77-.65,3.93-1.95,4.13-4.01Z"/>
      <path class="cls-1" d="M79.05,217.66c.33-1.03.94-2,.77-3.15-.2-.1-.75-.09-.95.04-2.46,1.56-3.25,1.33-3.33,3.05l-.13,2.65-.18,5.65.33,4.49c.04.52,0,1.05.32,1.18-.09-4.75,1-5.36,1.95-9.13.41-1.62.72-3.22,1.22-4.79Z"/>
      <path class="cls-1" d="M89.18,187.17c-3.13-1.72-3.69-.89-6.12.74l-3.57,2.4c-.65.44-1.12.6-1.19,1.49l-.48,5.5-.39,3.18c-.35,2.9.13,3.89-.38,7.03-.08.52-.38,5.06.22,4.68l.43-.28c.64-.42,1.24-.62,2.04-.79,1.21-.26,2.75.08,3.07,1.56.12.55-.04,1.47,0,2.09.11,1.82.25,3.4-.47,5-.34.74-.36,1.8-.59,2.62l-.77,2.7-.87,2.96c-.42,1.43-.86,2.65-1.15,4.08-.46,2.28-.9,4.45-1.17,6.77-.12,1.05-.62,2.19.31,3.09.72-1.82,1.51-3.48,2.03-5.26l1.43-4.91.86-2.96.55-1.88.98-3.84c.25-.97.4-1.97.6-2.98l.39-2.01c.3-1.51.57-3.03.78-4.57l.33-2.33,1.55-9.66c.47-2.9.69-5.69.75-8.62.07-.34.52-1.07.54-1.42l.17-3.07c.02-.33.55-1.11.13-1.35Z"/>
      <path class="cls-1" d="M70,201.57c-1.33,3.95-1.96,5.1-1.54,9.83l.39,4.43c.17,1.92.61,3.82,1.18,5.61.2.63.05,1.22,1.05,1.37.3-.56.46-1.26.5-2.08l.12-2.74c.04-.78.25-1.4.51-2.16.28-.8.54-5.61.02-6.83l.16-2.59.22-6.4c.03-.95.86-1.86.15-2.9-1.31,1.35-2.2,2.81-2.76,4.48Z"/>
      <path class="cls-1" d="M50.55,315.18c3.39-2.98,3.55-4.97,7.38-8.64.78-.75,1.39-1.52,2.06-2.37.52-.67,1.24-1.28,1.86-1.88l1.73-1.68c.39-.37.84-.79.67-1.31l-2.53,2.04-5.59,5.62c-2.75,2.76-3.96,4.55-5.57,8.23Z"/>
      <path class="cls-1" d="M59.25,194.41c.05-.53.23-.99.36-1.55.79-3.28.32-4.31.39-7.04.03-1.45.06-2.93-.1-4.34-.07-.57-.3-1.07-.18-1.67.08-.4,0-.84-.22-1.05-1.13,2.18-1.53,4.26-1.84,6.55l-.4,2.95-.63,4.38-.5,3.76c-.14,1.05-.15,2.22-.22,3.3,1.53.88,3.2-3.84,3.35-5.3Z"/>
      <path class="cls-2" d="M56.55,285.7c-.72,2.23-4.38,5.56-5.44,7.76-.2.41,2.75,5.41,2.54,5.85l.04,3.94-1.65,3.76c-.32.73-.7,1.27-1.43,1.62l-.38.83c-.62.64-1.54,1.23-1.95,2.02l-1.55,3c-1.08,2.09-1.95,3.77-2.54,6.03l-.78,3c-.17.65-.61,1.58-.97,2.17l-2.05,3.36-1.07,1.24c-1.31,1.52-2.17,3.25-3.36,4.9l-3.27,4.51c-2.88,3.98-5.24,7.79-6.97,12.45.58.61,1.16,1.25,1.76,1.69,1.04.77,5.54-1.46,6.65-2.31l6.91-5.28c.9-.69,1.79-1.27,2.71-1.92l2.29-1.64c1.12-.8,2.31-1.1,3.26-2.28l.24.34c.49,1.83,1.53,3.65,2.64,4.95.73.85,1.31,1.1,2.28.85,1.23-.32,1.91-.84,2.65-1.82.65-.87,1.39-1.81,1.54-2.99l.44-3.34c.02-.15.21-.56.36-.56.06,0,1.07.64,1.49,1.15,1.61,1.93,4.56-2.62,4.36-1.5-.22,1.22-.98,1.67-1.31,2.24-1.45,2.45-2.41,3.53-3.65,5.66l-2.63,4.53c-.35.6-.64,1.21-1.03,1.79-.58.85-1.04,1.71-1.62,2.57l-1.28,1.92-2.8,4.61c-.27.45-.62,1.44-.29,1.83,1.27,1.48,1.84,1.37,3.77.85,0,0-.04.23-.06.37-.35,1.46-1.33,2.4-2.21,3.6l-1.93,2.64c-1.11,1.52-2.14,2.79-2.98,4.47-1.44,2.87-3.45,4.41-1.46,5.99.37.29.95.63,1.42.64.9.02,2.37-1.69,2.79-2.85.38-1.07,1.36-1.68,1.9-2.5,1.18-1.79.02-1.65,4.08-5.38.81-.74,1.65-1.22,2.63-1.82.49-.3,1.3-1.09,1.96-.46.65,2.38-.6,1.59-1.21,4.66-.45,2.27-3.12,3.19-4.84,4.78l-2.82,2.61c-1.09,1.01-2.19,2.04-3.06,3.29.19-.27-3.49,7.29-3.57,7.77l-.61,3.61-1.02,2.67c-.32.84-.53,1.7-.83,2.58l-1.18,3.54c-.29.88-.61,1.62-.76,2.51l-.99,5.58-1.21,4.27c-.44,1.55-.82,2.96-1.32,4.46l-.81,2.42-.53,1.48c-.11.31.03,1.22-.2,1.46-1.58,1.41-1.06,3.56-1.87,6.13l-.63,1.98c-.75,2.36-1.46,4.78-1.85,7.24.32.73,1.25,1.84,2.09,1.8,1.19-.07,1.66-1.52,2.19-2.39,1.08-1.79,1.88-3.53,2.87-5.34l2.45-4.48,2.42-5.6,2.59-6.62.86-2.21,1.3-3.24c.85-2.1,1.37-4.17,2.12-6.27l2.2-6.15c.39-1.09.6-2.1,1.04-3.15,1.05-2.51,1.5-4.17,2.77-7.09,1.13-2.59,2.09-5.1,3.04-7.76.37-1.03,1.16-1.94,1.63-2.95.5-1.08.83-2.44,1.95-3.05l6.3-3.4c.19-.1.68-.09.82,0,.41.23-.22,2.3-.35,3.72l-.58,6.21-.18,2.8-.2,2.02-.28,2.16c-.24,1.85-.39,3.67-.93,5.46-.36,1.19-.65,2.51-.74,3.76l-.42,5.4-.11,7.76.21,5.82.11,7.55.07,3.49c.04,2.27.3,5.12.12,6.98-.14,1.43.03,2.94-.19,4.35-.13.86-.22,1.54-.17,2.43.07,1.14.07,2.26.1,3.4l.1,3.02.12,8.17c.02,1.27.22,2.52.17,3.79l-.09,2.38c-1.22.06-2.26-.03-3.42-.06l-5.71-.15-2.26-.05c-1.54-.04-3.19,0-4.73-.19-1.53-.18-2.85-.46-4.45-.13-.83.17-1.98-.47-3.65,1.52-1.18,1.39-1.46,3.21-1.89,4.91-.57,2.29.31,6.61,1,8.99l1,3.44c.15.5.38.97.41,1.57.08,1.52.55,2.93,1.03,4.36l-1.46,1.09-2.69,1.28c-1.65.78-2.93,1.95-4.66,2.57l-2.21.79-2.71,1.08c-1.43.57-23.66,10.44-24.96,11.2l-3.04,1.77c-1.86,1.08-3,4.33-1.87,5.37.8.74,2.08.54,3.06.48.91-.05,1.88-.02,2.7-.34,1.83-.7,24.21-10.79,25.95-11.77.73-.41,1.38-1.07,2.21-1.32.57-.17.93-.43,1.39-.8,2.47-2,2.2-1.05,5.05-2.93,1.28-.84,3.32-1.94,4.75-2.66.34.13.62.87.7,1.21l.61,2.6,1.35,1.24c.3.28.23,1.26.04,1.64-.47.9-.76,1.82-1.18,2.7l-1,2.11c-.23.49-.49.97-.76,1.46l-3.67,6.72c-.74,1.36-1.18,2.72-1.53,4.29-.11.48-.53.92-.82,1.38-.42.68-.64,1.63-.9,2.45-.46,1.46-2.38,6.02-3.13,7.49-.45.88-.55,1.87-.73,2.92-.1.57-.71,1.28-.9,1.83-.75,2.19-1.94,3.97-2.94,6.04-.49,1-.89,2.22-1.3,3.29l-1.61,4.23c-1.27,3.32.39,2.95,1.28,4.92,1.16.41,2.42-.36,2.93-1.46l1.89-4.12c.21-.46.3-1.38.48-1.92,1.56-4.58,1.34-2.95,2.85-6.15l.99-2.09c.56-1.17.18-3.17,3.35-8.13,1.25-1.96,1.84-4.65,3.53-6.1l1.75-1.49c.18-.15.6-.29.79-.24.87.26-.2,5.91-.42,6.54-1.51,2.66-2.53,5.21-3.48,8.04-.5,1.5-1.53,2.89-1.84,4.45l-.44,2.22c-.21,1.08-.45,2.17-.11,3.27.17.54.92,1.39,1.44,1.56.98.31,2.01-.42,2.63-1,.65-.61,2.83-3.69,3.23-4.38.56-.98.8-2.06,1.15-3.05,1.7-4.74.72-2.44,1.26-5.44l.09-.52c0-.16-.01-.42,0-.48l.2-1.97c.2-2,1.49-3.2,1.74-3.72l.65-1.32,1.78-2.38c.09-.12,1.01-.83,1.06-.88l.96-1.09c.53-.61,1.17-1.24,1.55-1.84l1.7-2.65c.08-.12.34-.33.43-.42l.41-.41c.28-.29.58-.57.85-.81l1.37-1.2c.23.03.27,0,.27.07v.38s-.1.35-.1.42l-.04,3.61v.44s-.01.35-.01.35c0,.04-.15.62-.16.64l-.13.3-.13.28-.12.26c-.04.09-.11.24-.12.27l-.08.33-.03.36-.03.39c-.01.12-.02.24-.04.34l-.05.34-.05.35c-.01.09-.04.29-.03.34v.43s0,.41,0,.41v.41s.03.37.03.37c.49,5.52-.14,10.58.17,15.8.06.13.2.42.2.48l.03,2.89v.43s-.02.41-.02.41v.4c-.02.07-.05.41-.04.49.33,2.05.29,4.54.36,6.62l.3,9.49c0,.08,0,.27-.01.4l-.02.4v.41c-.04,1.02.16.82.16,1.95,0,1.79.32,3.38.53,5.12l.41,3.52c.15,1.28.2,2.48.61,3.8.24.76,1.25,1.82,1.96,2.19,1.87.94,3.27-.75,4.13-1.6l.74-.73s.13-.23.16-.29l.14-.26c.37-.68.61-1.32.89-2.11l1.23-3.46c-.03.08.55-.93.46-.57l.52-1.99c.22-.83.23-1.75.31-2.64l.03-.35c.11-1.2.17-2.47.39-3.57.04-.19.24-.65.25-.85.2-3,.65-.92.84-3.55l.12-1.62c.26-3.65-.42-6.48.63-9.79.1-.32.16-.88.17-1.25l.13-5.84c.08-3.54.67-2.12.98-5.89l.22-2.6.42-4.94c.02-.22.17-.69.21-.9.25-1.24.37-2.51.76-3.64.17-.49.49-1.05.51-1.52l.33-5.33c.09-1.48.22-3.42-1.16-4.42-1.73-.01-2.97,1.83-2.72,3.54.07.52-.16,1.31-.12,1.76.08.88.21,1.75.03,2.53l-.41,1.8c-.65,2.81-1.08,5.44-1.33,8.32l-.31,3.58c-.29,3.3-.63,1.89-.91,4.59-.02.23-.24.77-.24.98l-.12,7.62c-.03,2-.94.8-.63,5.82l.16,2.58c.07,1.13.13,2.19-.24,3.26-.63,1.83-1.13,3.69-1.31,5.66-.23,2.59-.26,5.21-1.76,7.51-1.02,1.55.27,1.22-.94,2.88l-.44.6c-.07.1-.36.3-.4.19l-.23-.7s-.02-.29-.03-.39l-.21-2c0-.07,0-.27,0-.4v-.4s0-.4,0-.4v-.4s0-.4,0-.4c0-.13.02-.34,0-.4l-.06-.36-.06-.34-.06-.35c0-.05-.02-.26-.02-.35.01-3.12-.08-6.08-.21-9.19l-.02-.41-.02-.39c0-.06-.03-.21-.04-.32l-.05-.33-.05-.37c-.01-.09-.02-.26-.03-.35v-.42s-.03-.4-.03-.4v-.39s.09-.42.08-.61l-.68-12.17c-.14-2.52-.03-4.64,0-7.06l.13-9.41.25-2.96.2-2.4c.11-1.29-.06-2.66.15-3.9.13-.8.24-1.51.3-2.3l.24-2.99c.03-.34.51-.74.79-.99l2.42-2.17c1.38-1.24,2.87-2.35,4.42-3.34,1.35-.87,2.71-2.25,3.45-3.5l1.29-2.19c.62-1.05,1.06-2.3,1.51-3.48.97-2.51-.68-4.02-1.92-6.74-.75-1.64-1.96-2.46-3.88-2.14l-2.18-.74c-1.04-.35-4.53.35-4.82,1-.91,2.08-2.96,4.73-3.16,7.38l-.27,3.5c-.18,2.34-1.12,11.63-2.74,12.93l-3.44,2.75c-1.45,1.16-2.89,2.49-3.97,3.98-.74,1.03-1.28,2.84-2.56,3.41-.3.13-.77.68-.99.93l-1,1.16c-.51.6-.32-1.46-1.05-2.26l-1.67-1.83c-.73.1-1.6.2-2.4.2h-.42c-.13,0-.59.11-.59,0,0-.13.03-.59.08-.68l1.91-3.93c.5-1.02.98-1.86,1.38-2.84,1.02-2.55,1.28-2.44,2.13-4.54.41-1.01.96-1.98,1.39-2.99l1.31-3.06c.59-1.38,2.29-3.5,2.63-4.8.87-3.37.75-2.86,2.35-5.99.38-.73,1.19-.79,1.84-1.02,1.97-.7,2.37-.67,4.55-1.61l2.07-.89,5.01-2.12,2.4-1.14,1.49-.72,2.92-1.47c2.09-1.05,4.14-2.05,6.32-2.8,1.74-.6,2.79-1.77,3.18-3.21.5-1.86-.02-3.18-1.09-4.63-1.17-1.59-3.88-1.44-6.35-2.43-.92-.37-1.72-.53-2.68-.72-2.43-.5-4.67-1.06-7.22-.85l-.14-3.39-.24-7.11-.23-4.73c-.04-.91.29-2.06.11-2.97-.37-1.84.02-3.44.13-5.24.18-2.9.12-5.8,0-8.68-.06-1.49-.21-2.96-.01-4.4.05-.38.42-1.04.26-1.37-.41-.87-.62-1.6-.57-2.49l.1-1.81c.06-1.1.02-2.11-.01-3.21l-.18-4.89c-.09-2.42-.28-4.82-.01-7.21l.66-5.89c.13-1.15.28-2.17.47-3.27l.85-5c.49-2.89.67-5.79.87-8.74l.25-3.8.46-4.2c.18-1.7.37-3.26.39-5.01.01-1.13,1.87-2.15,2.79-2.62,1.98-1,3.01-1.67,3.54-3.62.1-.38.53-1.11.46-1.53l-.73-4.38c-.38-2.25-1.58-4.31-3.08-6-.51-.57-1.85-1.28-2.46-.66-.93.94-1.78,2.15-2.37,3.36-1.14,2.3-1.93,9.38-2.22,12.25-.05.5-.59,1.2-1.09,1.24-1.02.1-1.5.76-2.24,1.14-1.11.56-2.38.67-3.17,1.95l-.5-.37c.08-.26.14-.45.15-.49l.16-1.63c.13-1.25.18-2.2-.31-3.33-.31-.71-.64-1.71-1.23-2.41-1.15-1.38-1.74-.4-1.98-1.22,1.85-2.04,4.86-6.44,3.63-9.05-.69-1.48-2.83-1.47-2.55-1.98l.34-.61.14-.26.15-.26,1.91-3.28c1.23-2.12,2.5-4.08,4.03-6,.67-.84,1.22-1.72,1.75-2.64l1.32-2.31c.26-.46.58-1.46,1.08-1.69,2.09-.92,3.56-2.53,4.03-4.8.53-2.55-.21-3.42.68-3.71,1.25-.42,2.52-1,3.73-1.65l20.18-15.47c1.19-.64,2.15-1.34,3.05-2.35.29-.32.64-.74.67-1.05.03-.35-.22-.97-.45-1.19l-1.17-1.09c-.27-.25-1.17-.15-1.56-.23-1.26-.25-2.39-.41-3.66-.59l-4.13-.93c-.37-.05-2.23.29-2.59.35l-3.83.29c-.59.09-15.52,12.6-16.12,12.84l-7.52,3.09c-1.39.57-5.2,2.52-6.41,3.33-3.17,2.11-6.5,4.45-7.17,8.62l-.89,5.53c-.02.1-.3.48-.38.53l-4.93,3.49c-1.53,1.08-2.91,2-4.33,3.1l-3.42,2.64c-.61.47-3.29,2.65-3.33,3.49h-.59c.1-1.35.64-2.73,1.82-3.49.26-.16.34-.5.49-.85.75-1.79,2.03-3.28,3.08-4.9l.8-1.22,2.59-3.42c1.1-1.46,2.2-2.83,3.24-4.33l2.14-3.09c1.01-1.45,2.09-2.8,3.19-4.2l2.87-3.69,1.49-1.92,2.46-3.31c.48-.65.88-1.43,1.42-2.02.91-1,1.76-1.95,2.58-3,1.08-1.4,4.6-5.25,5.88-6.37l1.71-1.49,2.26-1.73,3.25-2.75,5.07-3.74c1.69-1.25,3.22-2.47,5-3.55.72-.43,1.28-1.36,1.52-2.05.32-.92-.07-1.23-.68-1.81-.28-.27-.84-.78-1.3-.65-2.09.62-3.98,1.17-6,1.89-.9.32-1.81,1.01-2.64,1.48l-3.17,1.81c-1.19.68-2.23,1.34-3.51,1.97-.4.2-.92.9-1.33,1.17-1.45.95-2.6,1.99-3.9,3.15l-3.81,3.38c-.06.05-.41.13-.38.05l.19-.44-3.57-6.63,4.54-5.76.12-.46,2.05-5.22-2.97-1.19c-.4,2.14-.85,1.83-1.84,4.89ZM52.85,387.82c-1.29,3.19-2.73,6.28-3.74,9.58-.64,2.1-1.16,4.08-1.87,6.15l-2,5.8c-.79,2.27-1.77,4.36-2.58,6.62l-1.63,4.52c-.15.4-.3.68-.53,1.02-.18-.79-.16-1.47.06-2.25l.82-2.89c.73-2.58,1.37-5.1,1.84-7.73.38-2.09,1.08-3.89,1.73-5.88l2.11-6.5c.33-1.03.44-3.09,1.22-4.39,2.18-3.59,2.1-5.33,4.5-7.53.57-.52,1.05-1.27,1.74-1.67.16,2.06-.98,3.45-1.66,5.15ZM70.7,497.29l.07-2.78c.04-1.57,1.35-5.02,3.14-6.43.38-.3,1.5-.34,1.98-.32l2.37.11c.7.48,1.29,1.57,1.84,2.34,1.21,1.71,0,3.19-.77,5.05-.22.53-.4,1.03-.78,1.45-1.07,1.2-2.01,2.75-3.47,3.6-3.05,1.77-2.05,1.52-5.07,3.48-.04-2.25.64-4.27.69-6.5ZM75.92,360.18l.4-1.76c.03-.12.28-.4.37-.48.12-.1.43.27.46.47.4,2.11,2.1,3.87.83,5.6-.62.85-1.53,1.62-2.91,1.48.2-1.8.46-3.54.85-5.31ZM51.87,492.8c-.76,1.33-.94,2.34-1.19,2.35-.15,0-.5-.28-.54-.45l-.56-2.44c-.18-.78,2.15-1.39,3.09-2.55.96.02-.58,2.7-.8,3.1ZM59.71,475.65l-2.01,1.92c-1.66,1.58-2.53,2.02-4.14,3.54l-3.18,3.03-1.89,1.71c-.19.17-.73.32-.93.2-.71-.45.06-1.05-.95-3.96l-1.39-4.02c-.72-2.09-1.41-6.86-.86-8.73.37-1.27,1.44-2.44,2.9-2.32,1.75.14,3.47.2,5.31.29l2,.1c1.49.07,2.91-.16,4.36.05,3.26-.55,4.38.32,7.42-.08.49.46.12,1.27-.14,1.75-.52.95-1.21.93-2.09,1.25-1.46.53-1.8,2.8-4.41,5.29ZM71.74,468.2h1.87c.73-.01,1.48.49,2.17.87.58.32,1.73-.23,2.29-.06l2.15.66c1.6.49,3.17,1.01,4.84,1.36.14.19.14,1-.06,1.21s-.65.44-1.01.56l-1.77.62c-.53.19-1.01.42-1.52.68l-7.45,3.7-2.84,1.41c-.32.16-1.09.14-1.37.12l-.22-1.73c-1.1.79-.36,2.43-2.27,3.16l-5.11,1.95c-.49-1.2,1.34-3.53,1.96-4.32.81-1.03,1.3-2.56,2.43-3.33.83-.57,1.43-1.18,2.12-1.95.77-.86,1.95-1.56,2.52-2.6l1.26-2.31ZM65.3,321.73c2.42-.96,4.77-1.8,7.11-2.91,1.6-.76,18.71-13.84,20.4-13.5l1.52.31,4.09.62c-1.93,1.48-20.09,15.58-22.23,16.41-1.49.58-2.86,1.3-4.3,2.06-.46.24-1.13.33-1.55.17l.21-2.22c-.72-.23-1.14-.44-1.58-.96-.64-.75-.7.13-2.18.67-.09,1,.09,2.38-.25,3.38-.46,1.35-1.94,2.27-3.25,2.68.2-1.94-.56-2.82-.6-5.27.9-.51,1.71-1.09,2.6-1.44ZM58.33,325.62l-.34,3.53c-.2,2.05-2.36,3.35-4.13,4.01-.66-2.84,1.98-6.4,4.47-7.54ZM56.52,336.15c.15.82-.27,1.38-.43,2.08-.37,1.69-.26,2.77-1.52,3.86-.09.08-.41-.2-.44-.34l-.63-3.34c.75-1.16,1.8-1.75,3.01-2.26ZM61.71,301.34l2.53-2.04c.18.52-.28.94-.67,1.31l-1.73,1.68c-.62.6-1.34,1.21-1.86,1.88-.67.85-1.28,1.62-2.06,2.37-3.83,3.67-3.99,5.66-7.38,8.64,1.61-3.68,2.82-5.47,5.57-8.23l5.59-5.62Z"/>
      <path class="cls-2" d="M92.03,189.42c-.07-.84-.93-1.84-.95-2.69l-1.31-1.1c-3.47-1.15-2.94-1.38-6.97-1.64-1.7.65-4.04,1.93-5.41,2.7-.13.07-.5-.3-.48-.42l.7-4.66.62-5.23,1.27-9.41c.33-2.46.57-4.81,1.22-7.22.46-1.73.25-3.62-1.1-4.99-.49-.22-1.74-.29-2.14,0-1.3,1.01-1.4,2.58-1.7,3.96-.47,2.17-1.06,4.23-1.25,6.43-.07.77-.12,1.48-.24,2.22l-.4,2.62-.62,3.25-.83,6.93-.45,2.21c-.16.78-.03,1.65-.29,2.4-.67,1.94-.58,4.18-1.45,6.07-1.09,1.71-4.72,4.57-5.84,6.27-1.38,2.1-2.54,4.18-3.39,6.5-1.11,3.03-.82,6.16-.37,9.3l1.12,7.77c.06.39.6,1.09.72,1.54l.56,2.05c.03.1-.08.59-.09.71-.01.1-.19,0-.27-.07l-.3-.28c-.76-.72-1.28-1.49-1.58-2.47-.24-.8-.7-1.64-.86-2.44-.41-2.03-.74-4.03-.77-6.04l-.06-5.06c0-.38.11-1.1,0-1.45-.33-.96-.62-1.98-.64-3.05-.02-1-.79-2.07-1.97-2.1-1.21-.03-2.08.47-2.67,1.25-.89,1.19-1.87,2.3-2.6,3.55l-1.65,2.84-.27.43c-.05.09-.31.25-.31.14l-.02-.68c0-.07-.06-.39-.05-.45l.3-3.15c0-.1,0-.28,0-.41v-.41s-.01-.4-.01-.4v-.4s-.01-.41-.01-.41c0-.31-.02-.33.15-.78,1.89.27,3.36-.66,4.24-2.03l.81-1.27c.96-1.51,1.23-3.07,1.77-4.72l.9-2.75.42-3.07c.17-1.26.31-2.68.24-3.96l-.24-4.03c-.07-1.16-1.27-4.78-.74-5.65l1.61-2.65c1.1-1.8,2.46-3.62,2.87-5.67.25-1.21-.06-2.51.44-3.65.11-.25.22-.53.11-.63-.04-.03-.31-.2-.34-.23l-.63-.64c-.19-.2-.34-.38-.5-.38-1.52-.07-2.21-.12-2.8.43-1.83,1.68-3.51,3.24-5.2,4.99-.61.63-1.27,1.15-1.94,1.73l-.55.46c-.11.09-.2-.26-.19-.39,0-.09.09-.46.17-.6,2.3-3.81,2.71-6.58,5.39-10.95,3.1-5.06,4.94-8.03,9.97-11.87.45-.35,1.19-.65,1.53-1.03.68-.74,1.38-1.22,2.14-1.85l4.87-3.99c.94-.77,1.82-1.46,2.68-2.32,3.9-3.92,3.54-2.48,6.12-7.73.03-.06.05-.13.07-.19l-2.9.21c-.58,1.35-1.82,1.38-2.29,1.9-.66.73-1.28,1.43-2.08,2.09-.88.73-1.66,1.52-2.64,2.17l-1.85,1.24c-.52.35-1.06,1.17-1.56,1.6l-2.58,2.25c-1.15,1-1.26-.27-2.22,1.04-.3.4-.7.99-1.06,1.3l-6.16,5.34c-1.45,1.25-2.27,2.86-3.46,4.23-1.06,1.23-1.59,2.59-2.37,3.98-.78,1.39-2.02,2.65-2.52,4.16-.22.66-.42.93-.94,1.49-.39.41-.35,1.45-.62,2.04l-1.96,4.29-1.4,3.41c-.18.45-1.25,5.42-1.27,6.22l1.86,1.32c.16.11.73.02.91-.12l2.95-2.36c.12-.1.48-.28.62-.35.1-.05.33.36.3.46l-10.26,9.48c-.26.68-.79,1.15-1.18,1.74-.7,1.05-1.43,2.05-2.02,3.1l-1.1,1.95c-2.73,4.82-3.9,8.19-2.48,13.81.88,1.16,12.42-4.08,12.35-2.82l-.46,8-.1,2.49-.04,8.56c-.42.58-.78,1.33-.96,2l-.83,3.13c-.18.68-2.21,16.91-2.48,17.51-.61,1.35-1.27,2.54-1.79,3.88l-1.8,4.69c-.12.31-.44.87-.47,1.16-.52,5.73-2.55,7.72.45,13.66l1.6,1.34c1.29,1.09,2.69.98,4.13.34.58-.26,1.34-.44,1.57-1.01,1.09-2.64,2.17-5.24,2.23-8.07l.09-3.95.11-3.06.46-6.6,2.27-21.16.11-4.02c.03-1.03.58-2.09.94-3.07l.84-2.28c.32-.87.61-1.65,1.04-2.55l1.15-2.39c.3-.62,1.48-.45,1.97-.31.22.06.34.55.34.79.05,1.56.26,2.93.49,4.43.58,3.79,2.07,7.22,4.81,10.27.94,1.04,1.89,2.39,3.63,2.61.69.09,2.19-.53,2.44-1.1.66-1.49-.04-2.99.47-4.38l.57.09.09.53v1.69s.27,1.55.27,1.55l.48,2.62.93,5.84.44,2.67c.34,2.06,1.57,3.31.89,5.4l-1.03,1.03c.12,1.15-.1,2.08-.43,3.17-.45,1.52-.47,3.35-.83,4.89-.07.28-.55.84-.56,1.14-.07,1.15-.54,2.34-1.05,3.4-.68,1.39-.71,2.82-1.05,4.2-.24.96-1.21,1.84-1.28,2.84-.1,1.45-1.6,1.15-2.58,5.93-.1.49.45,1.48-.05,1.89-.33.27-1.01.55-1,.87.04.86-.3,1.71-.68,2.45-.62,1.2-1.15,2.35-1.68,3.6-.1.25-.14.91-.33,1.11-1.58,1.64.67,2.26-2.12,3.6-.06.52-.14.95-.22,1.33l3.47,1.19,1.01-2.19.87-1.94,4.39-10.16.71-1.73.82-2.07c.53-1.33.82-2.62,1.24-3.93l1.09-3.43.49-1.8,2.76-9.23c.28-.93.66-1.82,1-2.73.59-1.53-.06-1.96.58-2.04.63-.08,3.92.98,5.53-1.53.71-1.1,1.12-2.23,1.59-3.41l1.73-4.33c.55-1.38,1.04-4.28,1.66-4.06l1.26.4c.2.06.94-.08.91-.25-.18-.92-1.81-.48-2.03-.73-.34-.39.56-2.18.86-3.23l1-3.48c.29-1.01.48-1.92.91-2.9.55-1.24.39-2.67.73-3.97l.75-2.86.5-3.85c.09-.69.47-1.39.59-2.07l.83-4.75c.04-.23.22-.7.25-.92l.4-2.83.43-4.02c.29-2.69.24-5.41.01-8.11ZM40.64,201.7l.59-3.76.74-4.38.47-2.95c.36-2.28,10.01-8.53,11.34-10.71.27.21.35.66.26,1.05-.14.6.13,1.1.21,1.67.19,1.41.16,2.88.12,4.34-.08,2.73.46,3.75-.45,7.04-.16.57-.36,1.02-.42,1.55-.17,1.45-2.13,6.18-3.92,5.3.08-1.08-9.09,1.9-8.93.86ZM41.45,254.53l-.28,6.77c-.03.71-.23,1.39-.41,2.06-.27,1-.25,2-1.15,2.9-.21-.46-.76-1.27-.79-1.75-.12-1.85-.22-3.58-.04-5.4l.21-2.22c.07-.7.61-1.4,1.01-2.1.85-1.46.56-3.21,1.54-2.62l-.08,2.37ZM69.12,201.15l-.25,6.4-.19,2.59c.61,1.22.3,6.03-.02,6.83-.31.76-.56,1.38-.6,2.16l-.15,2.74c-.04.82-.23,1.52-.58,2.08-1.17-.15-.99-.74-1.22-1.37-.67-1.8-1.19-3.7-1.39-5.61l-.46-4.43c-.49-4.72.25-5.88,1.81-9.83.66-1.66,1.69-3.13,3.23-4.48.83,1.04-.13,1.95-.17,2.9ZM72.94,232.72c-.37-.13-.33-.66-.37-1.18l-.38-4.49.21-5.65.15-2.65c.09-1.71,1.02-1.49,3.9-3.05.24-.13.88-.14,1.12-.04.2,1.14-.51,2.12-.9,3.15-.59,1.57-.95,3.17-1.43,4.79-1.12,3.78-2.39,4.39-2.29,9.13ZM88.36,189.66l-.19,3.07c-.02.35-.55,1.08-.63,1.42-.07,2.93-.34,5.71-.88,8.62l-1.81,9.66-.39,2.33c-.26,1.54-.57,3.06-.92,4.57l-.46,2.01c-.23,1.01-.41,2-.7,2.98l-1.15,3.84-.65,1.88-1,2.96-1.67,4.91c-.61,1.78-1.53,3.45-2.37,5.26-1.09-.9-.51-2.04-.36-3.09.32-2.32.83-4.49,1.37-6.77.34-1.43.85-2.65,1.34-4.08l1.01-2.96.9-2.7c.27-.82.3-1.88.69-2.62.85-1.6.69-3.19.55-5-.04-.62.14-1.53,0-2.09-.36-1.48-2.17-1.82-3.59-1.56-.94.17-1.63.37-2.38.79l-.5.28c-.7.38-.35-4.16-.25-4.68.6-3.15.03-4.13.45-7.03l.46-3.18.56-5.5c.09-.89.63-1.05,1.4-1.49l4.17-2.4c2.84-1.63,3.5-2.47,7.16-.74.5.24-.13,1.02-.15,1.35Z"/>
    </g>
  </g>
</svg>