<?xml version="1.0" encoding="UTF-8"?>
<svg id="_レイヤー_2" data-name="レイヤー 2" xmlns="http://www.w3.org/2000/svg" viewBox="0 0 85.19 578.51">
  <defs>
    <style>
      .cls-1, .cls-2 {
        fill: #fff;
      }

      .cls-2 {
        font-family: Helvetica-Light, Helvetica;
        font-size: 26px;
        font-weight: 300;
        glyph-orientation-vertical: 90deg;
        letter-spacing: 1.64em;
        text-orientation: sideways-right;
        writing-mode: tb;
      }
    </style>
  </defs>
  <g id="_レイヤー_1-2" data-name="レイヤー 1">
    <g>
      <path class="cls-1" d="M41.47,537.5c-.4.69-2.58,3.76-3.23,4.38s-1.64,1.32-2.63,1c-.53-.17-1.28-1.02-1.44-1.56-.34-1.1-.1-2.19.11-3.27l.44-2.22c.31-1.56,1.33-2.95,1.84-4.45.95-2.83,1.97-5.38,3.48-8.04.22-.63,1.29-6.29.42-6.54-.19-.06-.61.08-.79.24l-1.75,1.49c-1.69,1.45-2.28,4.14-3.53,6.1-3.17,4.95-2.8,6.95-3.35,8.13l-.99,2.09c-1.51,3.2-1.29,1.57-2.85,6.15-.18.54-.27,1.46-.48,1.92l-1.89,4.12c-.5,1.1-1.76,1.87-2.93,1.46-.9-1.97-2.55-1.6-1.28-4.92l1.61-4.23c.41-1.07.81-2.29,1.3-3.29,1.01-2.06,2.2-3.85,2.94-6.04.19-.55.8-1.26.9-1.83.18-1.05.28-2.04.73-2.92.75-1.47,2.67-6.03,3.13-7.49.25-.82.48-1.77.9-2.45.28-.46.71-.89.82-1.38.35-1.57.79-2.94,1.53-4.29l3.67-6.72c.27-.49.53-.97.76-1.46l1-2.11c.42-.89.71-1.8,1.18-2.7.19-.38.27-1.36-.04-1.64l-1.35-1.24-.61-2.6c-.08-.34-.36-1.07-.7-1.21-1.43.71-3.48,1.81-4.75,2.66-2.85,1.88-2.58.93-5.05,2.93-.46.37-.82.63-1.39.8-.83.25-1.48.91-2.21,1.32-1.74.98-3.38,1.78-5.21,2.48-.82.31-1.78.28-2.7.34-.98.06-2.25.26-3.06-.48-1.13-1.04.02-4.29,1.87-5.37l3.04-1.77c1.3-.76,2.8-1.33,4.23-1.91l2.71-1.08,2.21-.79c1.72-.61,3.01-1.78,4.66-2.57l2.69-1.28,1.46-1.09c-.48-1.42-.95-2.84-1.03-4.36-.03-.6-.26-1.06-.41-1.57l-1-3.44c-.69-2.38-1.57-6.7-1-8.99.43-1.7.71-3.51,1.89-4.91,1.68-1.99,2.83-1.35,3.65-1.52,1.6-.32,2.92-.04,4.45.13s3.19.15,4.73.19l2.26.05,5.71.15c1.16.03,2.2.12,3.42.06l.09-2.38c.05-1.26-.15-2.51-.17-3.79l-.12-8.17-.1-3.02c-.04-1.14-.04-2.26-.1-3.4-.05-.89.03-1.57.17-2.43.22-1.41.05-2.92.19-4.35.18-1.86-.08-4.71-.12-6.98l-.07-3.49-.11-7.55-.21-5.82.11-7.76.42-5.4c.1-1.25.39-2.57.74-3.76.53-1.79.69-3.61.93-5.46l.28-2.16.2-2.02.18-2.8.58-6.21c.13-1.42.76-3.48.35-3.72-.14-.08-.64-.09-.82,0l-6.3,3.4c-1.12.61-1.46,1.98-1.95,3.05-.47,1.01-1.26,1.93-1.63,2.95-.96,2.66-1.91,5.17-3.04,7.76-1.27,2.92-1.72,4.58-2.77,7.09-.44,1.05-.65,2.06-1.04,3.15l-2.2,6.15c-.75,2.11-1.27,4.17-2.12,6.27l-1.3,3.24-.86,2.21-2.59,6.62-2.42,5.6-2.45,4.48c-.99,1.81-1.79,3.56-2.87,5.34-.52.87-1,2.32-2.19,2.39-.84.05-1.77-1.07-2.09-1.8.39-2.46,1.1-4.88,1.85-7.24l.63-1.98c.81-2.57.29-4.71,1.87-6.13.23-.24.09-1.14.2-1.46l.53-1.48.81-2.42c.5-1.5.88-2.9,1.32-4.46l1.21-4.27.99-5.58c.16-.89.47-1.63.76-2.51l1.18-3.54c.29-.88.51-1.74.83-2.58l1.02-2.67.61-3.61c.08-.48,3.76-8.04,3.57-7.77.87-1.25,1.97-2.28,3.06-3.29l2.82-2.61c1.72-1.59,4.39-2.51,4.84-4.78.61-3.07,1.86-2.27,1.21-4.66-.66-.63-1.46.16-1.96.46-.99.59-1.83,1.07-2.63,1.82-4.07,3.73-2.9,3.6-4.08,5.38-.54.82-1.52,1.43-1.9,2.5-.41,1.15-1.89,2.87-2.79,2.85-.47-.01-1.05-.35-1.42-.64-2-1.58.01-3.11,1.46-5.99.84-1.68,1.87-2.95,2.98-4.47l1.93-2.64c.88-1.2,1.86-2.14,2.21-3.6.02-.14.07-.38.06-.37-1.93.53-2.5.64-3.77-.85-.33-.39.02-1.38.29-1.83l2.8-4.61,1.28-1.92c.58-.86,1.04-1.71,1.62-2.57.39-.57.68-1.18,1.03-1.79l2.63-4.53c1.24-2.13,2.2-3.21,3.65-5.66.34-.57,1.09-1.02,1.31-2.24.2-1.12-2.76,3.43-4.36,1.5-.42-.5-1.43-1.15-1.49-1.15-.14,0-.34.41-.36.56l-.44,3.34c-.16,1.18-.89,2.12-1.54,2.99-.74.99-1.42,1.51-2.65,1.82-.97.25-1.55,0-2.28-.85-1.11-1.3-2.15-3.12-2.64-4.95l-.24-.34c-.96,1.18-2.14,1.48-3.26,2.28l-2.29,1.64c-.92.66-1.81,1.24-2.71,1.92l-6.91,5.28c-1.11.85-5.61,3.07-6.65,2.31-.6-.44-1.18-1.08-1.76-1.69,1.73-4.66,4.09-8.48,6.97-12.45l3.27-4.51c1.19-1.64,2.05-3.37,3.36-4.9l1.07-1.24,2.05-3.36c.36-.59.81-1.52.97-2.17l.78-3c.59-2.26,1.46-3.94,2.54-6.03l1.55-3c.41-.79,1.32-1.38,1.95-2.02l.38-.83c.73-.35,1.11-.9,1.43-1.62l1.65-3.76,1.98-4.16c.21-.44.32-.89.52-1.3,1.06-2.2,2.12-4.73,2.84-6.96,1.17-3.61,1.91-3.48,2.26-6.91,2.38-1.35.45-1.96,1.81-3.6.17-.2.19-.87.28-1.11.45-1.25.9-2.4,1.43-3.6.33-.74.62-1.59.58-2.45-.01-.32.57-.6.85-.87.42-.41-.05-1.39.04-1.89.84-4.78,2.13-4.47,2.21-5.93.06-1.01.89-1.89,1.09-2.84.29-1.38.32-2.81.9-4.2.44-1.06.84-2.24.9-3.4.02-.3.43-.86.48-1.14.31-1.54.32-3.37.71-4.89.28-1.09.47-2.02.37-3.17l.88-1.03c.58-2.09-.47-3.34-.76-5.4l-.37-2.67-.8-5.84-.41-2.62-.24-1.55v-1.69s-.07-.53-.07-.53l-.49-.09c-.43,1.39.16,2.89-.4,4.38-.21.57-1.49,1.19-2.08,1.1-1.49-.22-2.3-1.57-3.1-2.61-2.35-3.05-3.62-6.48-4.12-10.27-.2-1.51-.38-2.88-.42-4.43,0-.24-.1-.73-.29-.79-.42-.13-1.43-.3-1.68.31l-.98,2.39c-.37.9-.62,1.67-.89,2.55l-.72,2.28c-.31.97-.78,2.04-.8,3.07l-.09,4.02-.21,5.99-.39,6.6-.1,3.06-.07,3.95c-.05,2.83-.98,5.43-1.91,8.07-.2.57-.85.76-1.35,1.01-1.23.64-2.42.75-3.53-.34l-1.36-1.34c-2.56-5.94-.82-7.93-.38-13.66.02-.29.3-.84.4-1.16l1.54-4.69c.44-1.33,1-2.53,1.53-3.88.23-.6.24-1.66.39-2.34l.71-3.13c.15-.67.47-1.42.82-2l.03-8.56.08-2.49.39-8c.06-1.26-2.23-1.85-2.98-3.01-1.22-5.62-.21-8.99,2.12-13.81l.94-1.95c.51-1.05,1.13-2.05,1.73-3.1.34-.59.79-1.06,1.01-1.74l1.19-3.65c.03-.09-.16-.5-.25-.46-.12.07-.43.25-.53.35l-2.52,2.36c-.16.15-.64.23-.78.12l-1.59-1.32c.02-.8.93-5.77,1.09-6.22l1.2-3.41,1.67-4.29c.23-.58.2-1.62.53-2.04.45-.55.62-.83.81-1.49.42-1.51,1.49-2.77,2.15-4.16s1.12-2.75,2.03-3.98c1.02-1.38,1.72-2.98,2.96-4.23l5.27-5.34c.31-.31.65-.9.91-1.3.82-1.31.92-.04,1.9-1.04l2.21-2.25c.43-.43.89-1.26,1.33-1.6l1.58-1.24c.83-.65,1.51-1.44,2.25-2.17.68-.66,1.21-1.36,1.78-2.09s2.49-.48,2.19-4.47c-.25-3.23-.56-4.77-1.55-7.88l-.83-2.61-1.12-3.31-.76-.78c-.35-1.17-.86-2.15-1.44-3.15-1.47-2.54-1.82-2.8-4.28-4.45l-2.17-1.45c-.13-.09-.37.49-.35.66l.28,3.69c.4,5.31-.26,8.85-.09,14.11.06,1.68-.41,6.18-1.95,7.05-1.95,1.11-4.64,0-5.89-1.72-.41-.56-.74-1.05-1.09-1.56l-1.97-2.82-3.26-5.51c-.47-.79-.92-1.44-1.5-2.14l-2.25-2.72c-.77-.93-1.32-1.98-2.14-2.9-2.68-3-3.14-4.91-2.4-8.91.81-.88,1.44-1.66,2.07-2.69,1-1.63,2.45-3.28,4.04-4.38l3.19-2.22c1.69-1.17,2.47-2.18,3.72-3.78.49-.63,1.66-1.41,2.4-1.56s1.37-.17,2.03-.57l-.05-13.49c0-1.37-1.09-2.63-1.54-3.78l-2.13-5.35c-.43-1.07-.91-4.14-.92-5.54s1.82-6.49,1.83-6.42l-.02-.43c0-.08-.07-.02-.18.05l-1.99,1.37c-.63.44-1.35.99-2,1.36l-3.63,2.05c-.49.06-1.38.06-1.95,0-.66-.07-.79-1.05-.63-1.58l.74-2.38c.22-.7.66-1.82,1.12-2.35l1.78-2.05c2.7-3.11,3.06-1.8,5.66-4.91,6-3.16,5.65-.42,8.92-4.98l1.55-2.17c.53-.74,1.07-1.63,1.67-2.3l3.76-4.24c2.09-2.35,2.99-2.16,2.66-3.83-.08-.38-.15-1.29-.46-1.55l-3-2.48c-3.64.04-5.27.51-8.4,2.07-1.96.97-3.83,1.87-5.85,2.69-.8.33-1.34.94-1.98,1.44s-1.53.62-1.94,1.48c-3.63,7.56,1.4,10.38-3.61,13.55-.44.01-1.56-.21-1.81-.59l-1.8-2.73c-1.36-.49-1.63-1.53-1.84-2.89-.28-1.75-1.02-3.66-.16-5.45.54-1.11,1.44-2.33,2.33-3.22,1.15-1.15,2.83-1.5,4.22-2.16,1.33-1.33,2.35-1.7,3.78-2.83l1.8-1.42c1.1-.87,2.07-2.02,2.73-3.31l-.18-1.98-.26-2.82c-.01-.15-.19-.44-.31-.4l-.55.17c-.23.07-.61.16-.8.19s-.58-.4-.63-.61l-.61-3.05c-.12-.62-.34-1.27-.09-1.73s.78-1.09,1.26-.91c.7.25,1.09.27,1.73.33.8.07,1.34,1.37,1.82,1.93.64.75,1.06,1.33,1.39,2.25,1.78,5.02,1.34,5.25-.25,9.02l-.14.32c-.16.39.62.51,1.74-.28.62-.43,1.32-.83,2-.96l2.64-.53,2.27-.4c.89-.16,1.95.49,2.76.75,1.14.37,1.79.86,2.49,1.75l2.01,2.58.04,2.16c.02,1.15-.29,2.08-1.02,2.99l-3.2,3.99c-.86,1.07-1.65,1.89-2.41,3.04l-1.51,2.3c-.32.49-.99,1.04-1.08,1.52-.14.81,1.19.33,1.75,1,.37.44.42,1.38.2,1.98-.43,1.18-2.27.25-1.82,2.03.28,1.11.41,2.17.54,3.3.4,3.4.85,4.59.22,8.18-.16.89-.39,1.74-.37,2.65l.06,3.8c.03,2.03.09,3.89-.6,5.83-.42,1.18-.2,2.58-.5,3.76-.44,1.71-1.94,3-2.65,4.64-.43,1-.41,2.24-.43,3.35l-.06,2.25c0,.25.05.77.15.97.12.24,1.73.27,2.72.53.76.2,1.48,1.62,1.35,2.43-.1.63-.43,1.57-.76,1.99l-2.58,3.24c-.37.46-.67.94-.62,1.61l.55,6.38c.04.51.03,1.23.15,1.72,1.2.7,2.45,1.34,3.72,1.93.22.1.61.55.83.71,3.63,2.84,3.08,4.04,4.93,6.27.56.67.71,1.4,1.02,2.19.99,2.49,1.73,3.3,2.1,5.9.08.53.45,1.32.46,1.82.02,1.08.17,1.77.61,2.65.79,1.59.64,3.4.69,5.17.02.78.37,1.84.07,2.56-2.21,5.25-1.9,3.81-5.23,7.73-.73.86-1.49,1.55-2.29,2.32l-4.16,3.99c-.66.63-1.26,1.12-1.83,1.85-.3.38-.92.68-1.31,1.03-4.3,3.84-5.88,6.8-8.53,11.87-2.29,4.37-2.64,7.14-4.61,10.95-.07.13-.14.5-.14.6,0,.13.07.48.16.39l.47-.46c.58-.58,1.14-1.09,1.66-1.73,1.44-1.75,2.88-3.31,4.44-4.99.5-.54,1.09-.49,2.4-.43.14,0,.26.19.43.38l.54.64s.26.2.29.23c.1.1,0,.38-.09.63-.42,1.13-.17,2.43-.38,3.65-.36,2.06-1.52,3.87-2.46,5.67l-1.38,2.65c-.45.87.57,4.5.63,5.65l.2,4.03c.06,1.28-.06,2.7-.21,3.96l-.36,3.07-.77,2.75c-.46,1.65-.69,3.21-1.51,4.72l-.69,1.27c-.75,1.37-2,2.3-3.62,2.03-.15.45-.14.47-.13.78v.41s0,.4,0,.4v.4s0,.41,0,.41c0,.13,0,.31,0,.41l-.26,3.15c0,.06.04.38.05.45l.02.68c0,.11.22-.05.27-.14l.23-.43,1.41-2.84c.62-1.26,1.46-2.37,2.22-3.55.5-.78,1.25-1.29,2.28-1.25s1.67,1.1,1.68,2.1c.02,1.07.27,2.08.55,3.05.1.34,0,1.07,0,1.45l.06,5.06c.02,2.01.31,4.01.66,6.04.14.8.53,1.64.73,2.44.25.98.69,1.75,1.35,2.47l.26.28c.07.07.22.17.23.07.01-.12.1-.61.08-.71l-.48-2.05c-.11-.45-.57-1.15-.62-1.54l-.96-7.77c-.39-3.14-.64-6.27.31-9.3.73-2.32,1.72-4.4,2.9-6.5.96-1.7,4.07-4.57,4.99-6.27.74-1.89.67-4.13,1.24-6.07.22-.75.11-1.63.25-2.4l.39-2.21.71-6.93.53-3.25.35-2.62c.1-.74.15-1.45.2-2.22.16-2.2.67-4.26,1.07-6.43.26-1.38.35-2.95,1.45-3.96.34-.3,1.41-.22,1.83,0,1.16,1.37,1.34,3.26.94,4.99-.56,2.42-.75,4.76-1.04,7.22l-1.09,9.41-.53,5.23-.6,4.66c-.02.12.3.49.41.42,1.17-.77,3.18-2.05,4.63-2.7,3.45.25,2.99.49,5.96,1.64l1.12,1.1c.01.85.75,1.85.81,2.69.19,2.7.24,5.42-.01,8.11l-.37,4.02-.34,2.83c-.03.22-.18.69-.22.92l-.71,4.75c-.1.68-.43,1.38-.5,2.07l-.43,3.85-.64,2.86c-.29,1.3-.16,2.73-.62,3.97-.37.98-.53,1.89-.78,2.9l-.86,3.48c-.26,1.05-1.03,2.84-.73,3.23.19.25,1.58-.19,1.73.73.03.17-.61.32-.78.25l-1.08-.4c-.53-.23-.95,2.68-1.42,4.06l-1.48,4.33c-.41,1.19-.76,2.31-1.36,3.41-1.38,2.51-4.19,1.45-4.73,1.53s0,.5-.5,2.04c-.3.91-.62,1.8-.86,2.73l-2.36,9.23-.42,1.8-.93,3.43c-.36,1.31-.61,2.6-1.06,3.93l-.7,2.07-.6,1.73-3.76,10.16-.74,1.94-2.91,7.41-.12.46-2.78,6.18-.91,1.76-.19.44c-.03.07.31,0,.38-.05l3.81-3.38c1.3-1.16,2.45-2.19,3.9-3.15.41-.27.93-.97,1.33-1.17,1.28-.63,2.32-1.29,3.51-1.97l3.17-1.81c.83-.47,1.74-1.17,2.64-1.48,2.03-.72,3.91-1.27,6-1.89.46-.14,1.02.38,1.3.65.61.58,1,.89.69,1.81-.24.69-.8,1.61-1.52,2.05-1.79,1.08-3.31,2.3-5,3.55l-5.07,3.74-3.25,2.75-2.26,1.73-1.71,1.49c-1.28,1.12-4.8,4.97-5.88,6.37-.82,1.06-1.67,2-2.58,3-.53.59-.93,1.37-1.42,2.02l-2.46,3.31-1.49,1.92-2.87,3.69c-1.09,1.4-2.18,2.75-3.19,4.2l-2.14,3.09c-1.04,1.51-2.14,2.88-3.24,4.33l-2.59,3.42-.8,1.22c-1.06,1.62-2.34,3.1-3.08,4.9-.15.36-.23.69-.49.85-1.18.76-1.72,2.14-1.82,3.49h.59c.04-.83,2.72-3.01,3.33-3.48l3.42-2.64c1.42-1.1,2.8-2.02,4.33-3.1l4.93-3.49c.07-.05.36-.44.38-.53l.89-5.53c.67-4.17,4.01-6.51,7.17-8.62,1.21-.81,5.02-2.76,6.41-3.33l7.52-3.09c.6-.25,1.47-.58,2.06-.66l2.46-.37c.36-.06,1.17-.32,1.54-.27l6.56.93c1.27.18,2.41.34,3.66.59.39.08,1.29-.02,1.56.23l1.17,1.09c.23.22.48.84.45,1.19-.03.32-.38.74-.67,1.05-.9,1.01-1.87,1.71-3.05,2.35l-6.12,3.29c-1.21.65-2.48,1.23-3.73,1.65-.89.3-.15,1.16-.68,3.71-.47,2.27-1.93,3.88-4.03,4.8-.51.22-.82,1.22-1.08,1.69l-1.32,2.31c-.53.92-1.07,1.8-1.75,2.64-1.53,1.92-2.79,3.88-4.03,6l-1.91,3.28-.15.26-.14.26-.34.61c-.28.5,1.86.5,2.55,1.98,1.22,2.61-1.78,7.02-3.63,9.05.24.82.83-.16,1.98,1.22.59.71.92,1.71,1.23,2.41.5,1.13.44,2.08.31,3.33l-.16,1.63s-.07.23-.15.49l.5.37c.78-1.28,2.06-1.39,3.17-1.95.74-.38,1.22-1.04,2.24-1.14.5-.05,1.04-.75,1.09-1.24.29-2.87,1.08-9.95,2.22-12.25.6-1.21,1.45-2.42,2.37-3.36.61-.62,1.95.09,2.46.66,1.49,1.69,2.7,3.75,3.08,6l.73,4.38c.07.42-.36,1.15-.46,1.53-.53,1.95-1.56,2.62-3.54,3.62-.92.46-2.77,1.49-2.79,2.62-.02,1.75-.21,3.31-.39,5.01l-.46,4.2-.25,3.8c-.2,2.95-.37,5.85-.87,8.74l-.85,5c-.19,1.1-.34,2.11-.47,3.27l-.66,5.89c-.27,2.39-.08,4.8.01,7.21l.18,4.89c.04,1.1.08,2.11.01,3.21l-.1,1.81c-.05.89.16,1.63.57,2.49.16.33-.21.99-.26,1.37-.2,1.44-.05,2.91.01,4.4.12,2.88.18,5.78,0,8.68-.11,1.8-.5,3.4-.13,5.24.18.92-.15,2.06-.11,2.97l.23,4.73.24,7.11.14,3.39c2.56-.21,4.79.35,7.22.85.96.2,1.76.36,2.68.72,2.48.99,5.19.85,6.35,2.43,1.07,1.45,1.59,2.78,1.09,4.63-.39,1.44-1.44,2.61-3.18,3.21-2.18.75-4.22,1.74-6.32,2.8l-2.92,1.47-1.49.72-2.4,1.14-5.01,2.12-2.07.89c-2.18.94-2.58.9-4.55,1.61-.65.23-1.47.28-1.84,1.02-1.6,3.12-1.48,2.62-2.35,5.99-.34,1.3-2.04,3.43-2.63,4.8l-1.31,3.06c-.43,1.01-.98,1.98-1.39,2.99-.85,2.1-1.11,1.99-2.13,4.54-.39.99-.88,1.82-1.38,2.84l-1.91,3.93c-.04.09-.08.55-.08.68,0,.12.46.01.59.01h.42c.8,0,1.67-.1,2.4-.21l1.67,1.83c.73.8.54,2.86,1.05,2.26l1-1.16c.22-.26.69-.8.99-.93,1.28-.57,1.82-2.38,2.56-3.41,1.08-1.49,2.53-2.82,3.97-3.98l3.44-2.75c1.62-1.3,2.56-10.59,2.74-12.93l.27-3.5c.2-2.65,2.25-5.3,3.16-7.38.29-.65,3.78-1.36,4.82-1l2.18.74c1.93-.32,3.14.5,3.88,2.14,1.24,2.71,2.89,4.23,1.92,6.74-.46,1.18-.89,2.42-1.51,3.48l-1.29,2.19c-.73,1.25-2.09,2.63-3.45,3.5-1.55,1-3.04,2.1-4.42,3.34l-2.42,2.17c-.28.25-.76.65-.79.99l-.24,2.99c-.06.79-.17,1.5-.3,2.3-.2,1.24-.04,2.61-.15,3.9l-.2,2.4-.25,2.96-.13,9.41c-.03,2.42-.14,4.54,0,7.06l.68,12.17c.01.19-.09.56-.09.61v.39s.03.4.03.4v.42c.02.1.03.27.04.35l.05.37.05.33c.01.11.04.26.04.32l.02.39.02.41c.13,3.11.23,6.08.21,9.19,0,.09.01.3.02.35l.06.35.06.34.06.36c0,.06,0,.26,0,.4v.4s0,.4,0,.4v.4s0,.4,0,.4c0,.13,0,.33,0,.4l.21,2c.01.1.01.34.03.39l.23.7c.04.12.32-.08.4-.19l.44-.6c1.2-1.66-.08-1.33.94-2.88,1.51-2.29,1.54-4.91,1.76-7.51.17-1.97.68-3.83,1.31-5.66.37-1.07.31-2.13.24-3.26l-.16-2.58c-.31-5.01.6-3.82.63-5.82l.12-7.62c0-.21.22-.75.24-.98.28-2.7.62-1.29.91-4.59l.31-3.58c.25-2.88.68-5.51,1.33-8.32l.41-1.8c.18-.79.05-1.65-.03-2.53-.04-.46.19-1.24.12-1.76-.24-1.71.99-3.56,2.72-3.54,1.38,1,1.25,2.94,1.16,4.42l-.33,5.33c-.03.47-.35,1.03-.51,1.52-.39,1.13-.51,2.4-.76,3.64-.04.21-.2.67-.21.9l-.42,4.94-.22,2.6c-.31,3.77-.9,2.35-.98,5.89l-.13,5.84c0,.37-.07.93-.17,1.25-1.05,3.32-.36,6.15-.63,9.79l-.12,1.62c-.19,2.64-.64.56-.84,3.55-.01.21-.22.67-.25.85-.22,1.1-.28,2.37-.39,3.57l-.03.35c-.08.89-.09,1.8-.31,2.64l-.52,1.99c.09-.36-.49.65-.46.57l-1.23,3.46c-.28.79-.52,1.43-.89,2.11l-.14.26c-.03.06-.14.27-.16.29l-.74.73c-.86.85-2.26,2.54-4.13,1.6-.72-.36-1.73-1.43-1.96-2.19-.41-1.32-.46-2.52-.61-3.8l-.41-3.52c-.2-1.73-.52-3.33-.53-5.12,0-1.13-.2-.93-.17-1.95v-.41s.03-.4.03-.4c0-.13.02-.32.01-.4l-.3-9.49c-.07-2.08-.03-4.56-.36-6.62-.01-.08.02-.42.03-.49v-.4s.03-.41.03-.41v-.43s-.02-2.89-.02-2.89c0-.06-.14-.35-.2-.48-.3-5.22.32-10.29-.17-15.8l-.03-.37v-.41s0-.41,0-.41v-.43s.02-.25.03-.34l.05-.35.05-.34c.01-.1.03-.22.04-.34l.03-.39.03-.36.08-.33s.08-.18.12-.27l.12-.26.13-.28.13-.3s.16-.6.16-.64v-.35s.01-.44.01-.44l.04-3.61c0-.06.12-.38.12-.42v-.38c-.02-.07-.06-.04-.28-.07l-1.37,1.2c-.27.24-.57.52-.85.81l-.41.41c-.09.09-.36.3-.43.42l-1.7,2.65c-.38.6-1.02,1.23-1.55,1.84l-.96,1.09s-.97.76-1.06.88l-1.78,2.38-.65,1.32c-.25.51-1.54,1.72-1.74,3.72l-.2,1.97c0,.06,0,.32,0,.48l-.09.52c-.54,3,.44.7-1.26,5.44-.36,1-.59,2.07-1.15,3.05ZM46.15,31.33c-.13-1.68-.23-3.07-.05-4.5l.55-4.2c-.68-.31-.96.22-1.27.47-1.21.97-1.41,2.2-1.03,3.67l.73,2.87c.18.71.25,1.57,1.06,1.69ZM62.53,60.5c.06-.5.4-1.3.41-1.78l.17-9.3c.02-.95.72-3.47.57-4.69l-.4-3.2c-.07-.54-.11-.99-.46-1.39-.3,2.17-.74,4.1-.78,6.22l-.13,6.2-.2,2.79c-.13,1.83-.39,3.55-.36,5.4.03,1.57.08,2.96.29,4.43.3-.49.43-.89.48-1.31l.4-3.37ZM57.85,52.07c.17-.85.22-1.52-.15-2.2-.09-.31-.09-.42-.22-.5-1.08-.65-1.01,4.41-.08,4.9l.45-2.2ZM49.93,102.96c.8-1.02,1-2.22,1.43-3.32l1.13-2.87c.47-1.18.85-2.33,1.23-3.54l.6-.55c.61-1.92,1.35-3.66,2.14-5.49l1.16-2.7c-.18-.72-.48-1.57-.81-2.5-.85.6-1.24,1.24-1.83,1.95l-1.63,1.99c-1.18,1.45-2.79,2.53-4.29,3.66-2.13,1.6-3.57,3.58-5.04,5.77-.96,1.42-1.81,2.95-.96,4.74.62,1.31,1.87,2.38,2.76,3.53l1.5,1.94.8,1.27c1.03-.96.32-2,1.81-3.9ZM58.05,120.81c.85-1.21.36-2.29.54-3.41.08-.5.4-1.24.38-1.77l-.07-2.53.06-2.98c.05-2.59-.12-5.05-.09-7.61.01-1.18-.29-2.41-.34-3.54l-.07-1.58-1.55,2.24-2.82,4.45c-1.02,1.61-1.78,3.71-2.46,5.43l-.92.73,1.46,2.11c1.48,2.14,1.6,2.94,3.39,5.19s1.31,2.65,2.5,3.27ZM52.08,190.5c.05-.53.23-.99.36-1.55.79-3.29.32-4.31.39-7.04.03-1.45.06-2.93-.1-4.34-.07-.57-.3-1.07-.18-1.67.08-.4,0-.84-.22-1.05-1.13,2.18-1.53,4.26-1.84,6.55l-.4,2.95-.63,4.38-.5,3.76c-.14,1.05-.15,2.22-.22,3.3,1.53.88,3.2-3.84,3.35-5.3ZM71.77,228.25c-.46,2.28-.9,4.45-1.17,6.77-.12,1.05-.62,2.19.31,3.09.72-1.82,1.51-3.48,2.03-5.26l1.43-4.91.86-2.96.55-1.88.98-3.84c.25-.97.4-1.97.6-2.98l.39-2.01c.3-1.51.57-3.03.78-4.57l.33-2.33,1.55-9.66c.47-2.9.69-5.69.75-8.62.07-.34.52-1.07.54-1.42l.17-3.07c.02-.33.55-1.11.13-1.35-3.13-1.72-3.69-.89-6.12.74l-3.57,2.4c-.65.44-1.12.6-1.19,1.49l-.48,5.5-.39,3.18c-.35,2.9.13,3.89-.38,7.03-.08.52-.38,5.06.22,4.68l.43-.28c.64-.42,1.24-.62,2.04-.79,1.21-.26,2.75.08,3.06,1.56.12.55-.04,1.47,0,2.09.11,1.82.25,3.4-.47,5-.34.74-.36,1.8-.59,2.62l-.77,2.7-.87,2.96c-.42,1.43-.86,2.65-1.15,4.08ZM64.4,216.83l.12-2.74c.04-.78.25-1.4.51-2.16s.54-5.61.02-6.83l.16-2.59.22-6.4c.03-.95.86-1.86.15-2.9-1.31,1.35-2.2,2.81-2.76,4.48-1.33,3.95-1.96,5.1-1.54,9.83l.39,4.43c.17,1.92.61,3.82,1.18,5.61.2.63.05,1.22,1.05,1.37.3-.56.46-1.26.5-2.08ZM68.71,227.68c-.09-4.75,1-5.36,1.95-9.13.41-1.62.72-3.22,1.22-4.79.33-1.03.94-2,.77-3.15-.2-.1-.75-.09-.95.04-2.46,1.56-3.25,1.33-3.33,3.05l-.13,2.65-.18,5.65.33,4.49c.04.52,0,1.05.32,1.18ZM41.94,246.04c.77-.9.75-1.9.98-2.9.16-.67.33-1.34.35-2.06l.24-6.77.07-2.37c-.84-.58-.59,1.17-1.31,2.62-.34.69-.8,1.4-.86,2.1l-.18,2.22c-.15,1.82-.06,3.55.04,5.4.03.48.49,1.29.68,1.75ZM50.76,302.64c.78-.75,1.39-1.52,2.06-2.37.52-.67,1.24-1.28,1.86-1.88l1.73-1.68c.39-.37.84-.79.67-1.31l-2.53,2.04-5.59,5.62c-2.75,2.76-3.96,4.55-5.57,8.23,3.39-2.98,3.55-4.97,7.38-8.64ZM61.8,317.82c.44.52.86.72,1.58.96l-.21,2.22c.42.16,1.1.07,1.55-.17,1.44-.75,2.81-1.48,4.3-2.06,2.14-.83,6.24-2.76,8.17-4.23l-4.09-.62-1.52-.31c-1.7-.34-4.74.56-6.34,1.32-2.34,1.11-4.69,1.96-7.11,2.91-.89.35-1.7.93-2.6,1.44.04,2.46.79,3.33.6,5.27,1.3-.41,2.79-1.33,3.25-2.68.34-.99.16-2.38.25-3.38,1.49-.54,1.54-1.42,2.18-.67ZM50.83,325.25l.34-3.53c-2.49,1.14-5.12,4.7-4.47,7.54,1.77-.65,3.93-1.95,4.13-4.01ZM48.92,334.33c.16-.71.58-1.27.43-2.08-1.21.51-2.27,1.1-3.01,2.26l.63,3.34c.03.14.34.42.44.34,1.26-1.09,1.14-2.17,1.52-3.86ZM69.98,354.5c-.04-.19-.34-.57-.46-.47-.09.07-.34.36-.37.48l-.4,1.76c-.4,1.77-.66,3.5-.85,5.31,1.38.14,2.29-.63,2.91-1.48,1.27-1.73-.43-3.49-.83-5.6ZM33.38,415.36c-.22.78-.24,1.46-.06,2.25.22-.34.38-.62.53-1.02l1.63-4.52c.82-2.26,1.8-4.35,2.58-6.62l2-5.8c.72-2.07,1.23-4.05,1.87-6.15,1.01-3.3,2.46-6.39,3.74-9.58.68-1.7,1.82-3.09,1.66-5.15-.7.39-1.18,1.15-1.74,1.67-2.4,2.21-2.31,3.94-4.5,7.53-.79,1.29-.89,3.36-1.22,4.39l-2.11,6.5c-.65,1.99-1.35,3.8-1.73,5.88-.47,2.63-1.11,5.15-1.84,7.73l-.82,2.89ZM50.53,473.67l2.01-1.92c2.61-2.49,2.95-4.76,4.41-5.29.87-.32,1.57-.3,2.09-1.25.26-.48.64-1.29.14-1.75-3.04.41-4.17-.47-7.42.08-1.45-.21-2.87.02-4.36-.05l-2-.1c-1.84-.09-3.56-.15-5.31-.29-1.46-.12-2.53,1.05-2.9,2.32-.55,1.87.14,6.64.86,8.73l1.39,4.02c1.01,2.91.24,3.51.95,3.96.2.12.74-.02.93-.2l1.89-1.71,3.18-3.03c1.6-1.53,2.48-1.96,4.14-3.54ZM63.24,475.31l2.84-1.41,7.45-3.7c.52-.26.99-.49,1.52-.68l1.77-.62c.36-.13.82-.35,1.01-.56s.19-1.02.06-1.21c-1.66-.35-3.23-.87-4.84-1.36l-2.15-.66c-.56-.17-1.71.38-2.29.06-.69-.38-1.44-.88-2.17-.88h-1.87s-1.26,2.32-1.26,2.32c-.57,1.04-1.75,1.74-2.52,2.6-.68.77-1.29,1.38-2.12,1.95-1.13.77-1.62,2.3-2.43,3.33-.62.79-2.45,3.12-1.96,4.32l5.11-1.95c1.91-.73,1.17-2.37,2.27-3.16l.22,1.73c.28.03,1.05.04,1.37-.12ZM67.91,496.41c1.46-.85,2.4-2.4,3.47-3.6.38-.42.56-.92.78-1.45.76-1.87,1.97-3.35.77-5.05-.55-.77-1.13-1.85-1.84-2.34l-2.37-.11c-.48-.02-1.6.01-1.98.32-1.79,1.41-3.1,4.86-3.14,6.43l-.07,2.78c-.06,2.23-.74,4.25-.69,6.5,3.02-1.96,2.02-1.72,5.07-3.48ZM44.7,488.9c.23-.4,1.77-3.08.8-3.1-.94,1.17-3.27,1.78-3.09,2.55l.56,2.44c.04.17.39.46.54.45.25-.01.44-1.02,1.19-2.35Z"/>
      <text class="cls-2" transform="translate(13.03 10.75)"><tspan x="0" y="0" xml:space="preserve">anno  maika</tspan></text>
    </g>
  </g>
</svg>